<svg width="1199" height="246" viewBox="0 0 1199 246" fill="none" xmlns="http://www.w3.org/2000/svg">
<path d="M1140.85 245.81L1198.54 187.5V41.32L1157.36 7H1100.12L1090.12 17.5L1079.13 10.5L1068.13 19.5L1053.1 7H578.858L568.282 18.5L551.338 7H33.1173C24.6905 13.23 9.3764 25.26 0 32.66V199.3L32.9873 246H112.957L120.414 236.5L137.407 242.5L149.403 229.5L163.687 246H1140.71L1140.85 245.81Z" fill="#1E1E1E"/>
<path d="M1140.85 238.81L1198.54 180.5V34.32L1157.36 0H1100.12L1090.12 10.5L1079.13 3.5L1068.13 12.5L1053.1 0H578.858L568.282 11.5L551.338 0H33.1173C24.6905 6.23 9.3764 18.26 0 25.66V192.3L32.9873 239H112.957L120.414 229.5L137.407 235.5L149.403 222.5L163.687 239H1140.71L1140.85 238.81Z" fill="url(#paint0_linear_1814_6028)"/>
<path style="mix-blend-mode:overlay" opacity="0.47" d="M0 114V192.3L32.9873 239H112.997L120.454 229.5L137.447 235.5L149.443 222.5L163.687 239H1140.71L1140.85 238.81L1198.54 180.5V114H0Z" fill="url(#paint1_linear_1814_6028)"/>
<g style="mix-blend-mode:multiply" opacity="0.66">
<path d="M1157.84 5.46875H1100.58L1100.29 5.76875L1090.86 15.6287L1090.58 15.9988L1079.58 8.99875L1078.84 9.59875L1068.59 17.9988L1067.8 17.3388L1053.59 5.46875H579.346L568.78 16.9988L568.081 16.5288L551.787 5.46875H33.6056L33.2557 5.72875C24.769 11.9988 9.73473 23.8187 0.488281 31.1287V197.759L32.9858 243.839L33.4356 244.469H113.405L120.952 234.999L122.102 235.409L137.946 240.999L138.265 240.659L149.941 227.999L150.151 228.239L164.146 244.499H1141.17L1141.31 244.299L1141.51 244.089L1198.85 186.159L1199 185.999V39.7787L1157.84 5.46875ZM1185.03 46.3887V180.209L1135.31 230.469H170.583L170.033 229.829L160.527 218.829L150.281 206.999L150.141 207.149L139.645 218.519L133.947 224.699L133.217 224.439L125.64 221.759L116.174 218.419L115.754 218.959L109.956 226.319L107.257 229.749L106.698 230.469H40.7228L40.1331 229.629L14.4829 193.309V37.9187C21.8501 32.1187 31.3364 24.7087 38.2638 19.4688H547.528L560.913 28.5487L569.79 34.5487L570.899 35.2987L579.066 26.4088L585.484 19.4088H1048.52L1059.59 28.7188L1067.76 35.5287L1068.47 36.1187L1077.42 28.7987L1079.72 26.9088L1080.57 26.2087L1083.02 27.7788L1092.69 33.9187L1100.63 25.6188L1106.34 19.6188L1106.53 19.4188H1152.73L1184.97 46.2887L1185.03 46.3887Z" fill="#7C7C7C"/>
</g>
<path d="M1198.39 180.66L1141.05 238.59L1137.68 231.37H1137.8L1190.59 177.02L1198.39 180.66Z" fill="#49423F"/>
<path d="M1198.54 34.3906V180.501L1198.39 180.661L1190.59 177.021L1190.81 176.791V38.2106L1190.65 38.0706L1198.54 34.3906Z" fill="#49423F"/>
<path d="M1190.65 38.0706L1184.54 40.9206V40.8706L1152.3 14.0006H1150.76L1153.85 7.39062L1190.65 38.0706Z" fill="#49423F"/>
<path d="M1153.85 7.38828L1150.76 13.9983H1106.11L1105.92 14.1983L1102.9 7.31828L1102.98 7.23828H1153.67L1153.85 7.38828Z" fill="#49423F"/>
<path d="M1105.92 14.2003L1100.2 20.1703L1092.26 28.4703L1092.23 28.4503L1091.24 18.6003L1102.9 7.32031L1105.92 14.2003Z" fill="#49423F"/>
<path d="M1091.24 18.5995L1092.23 28.4495L1082.56 22.3095L1080.11 20.7395L1079.27 21.4395L1078.79 12.3995L1078.99 12.2695L1090.98 18.8495L1091.24 18.5995Z" fill="#49423F"/>
<path d="M1078.79 12.3984L1079.27 21.4384L1076.96 23.3284L1068.01 30.6484L1067.3 30.0584V20.0584L1078.79 12.3984Z" fill="#49423F"/>
<path d="M1067.3 20.0603V30.0603L1059.13 23.2503L1048.03 14.0003H1047.71L1050.49 6.57031L1067.3 20.0603Z" fill="#49423F"/>
<path d="M1050.36 6.46094L1050.49 6.57094L1047.71 14.0009H585.024L581.855 6.75094L582.145 6.46094H1050.36Z" fill="#49423F"/>
<path d="M585.023 14H584.993L578.576 20.97L570.409 29.86L569.299 29.11L568.43 19.91L568.6 20.01L581.855 6.75L585.023 14Z" fill="#49423F"/>
<path d="M568.43 19.91L569.299 29.11L560.423 23.08L547.038 14H545.898L548.148 8L568.43 19.91Z" fill="#49423F"/>
<path d="M1141.05 238.591L1140.85 238.801L1140.71 239.001H164.668L167.207 231.371H1137.68L1141.05 238.591Z" fill="#49423F"/>
<path d="M167.206 231.372L164.667 239.002H163.687L149.652 222.742V213.432L149.922 213.172L166.646 231.372H167.206Z" fill="#49423F"/>
<path d="M149.652 213.43V222.74L149.442 222.5L137.766 235.16L137.656 235.06L135.277 227.44L149.652 213.43Z" fill="#49423F"/>
<path d="M137.766 235.161L137.446 235.501L121.602 229.911L118.613 222.211L135.217 227.501L135.277 227.441L137.656 235.061L137.766 235.161Z" fill="#49423F"/>
<path d="M118.612 222.208L121.601 229.908L120.451 229.498L112.994 238.998H112.264L109.695 232.128L118.192 222.078L118.612 222.208Z" fill="#49423F"/>
<path d="M109.699 232.131L112.268 239.001H32.9889L32.5391 238.371L35.8778 231.711L36.1677 232.141H109.689L109.699 232.131Z" fill="#49423F"/>
<path d="M35.8762 231.711L32.5375 238.371L0 192.291V191.981L7.35718 189.871L35.8762 231.711Z" fill="#49423F"/>
<path d="M548.153 8.00109L545.904 14.0011H37.9289L35.5898 7.77109L35.7798 7.62109H547.503L548.153 8.00109Z" fill="#49423F"/>
<path d="M13.9919 33.6808V187.841L13.702 188.061L7.35445 189.871L7.14453 189.561V30.0808L7.18452 30.0508L13.9919 33.6808Z" fill="#49423F"/>
<path d="M35.5866 7.76953L37.9257 13.9995H37.7758C30.8484 19.2395 21.3621 26.6495 13.9949 32.4495V33.6795L7.1875 30.0495L35.5866 7.76953Z" fill="#49423F"/>
<path d="M115.227 213.488L118.615 222.208L118.196 222.078L109.699 232.128L106.75 224.278L109.449 220.848L115.227 213.488Z" fill="#8B817C"/>
<path d="M581.857 6.75L568.602 20.01L568.432 19.91L567.582 11.03L568.282 11.5L578.858 0H578.898L581.857 6.75Z" fill="#8B817C"/>
<path d="M1198.54 34.31V34.39L1190.65 38.07L1153.85 7.39L1157.27 0.06V0H1157.36L1198.54 34.31Z" fill="#8B817C"/>
<path d="M1157.27 0V0.06L1153.85 7.39L1153.67 7.24H1102.98L1102.9 7.32L1099.83 0.3L1100.12 0H1157.27Z" fill="#8B817C"/>
<path d="M1078.35 4.10156L1078.79 12.4016L1067.3 20.0616V11.8416L1068.09 12.5016L1078.35 4.10156Z" fill="#8B817C"/>
<path d="M1067.3 11.84V20.06L1050.49 6.57L1052.96 0H1053.1L1067.3 11.84Z" fill="#746C69"/>
<path d="M1090.4 10.16L1091.24 18.6L1090.98 18.85L1078.99 12.27L1078.79 12.4L1078.35 4.1L1079.09 3.5L1090.08 10.5L1090.4 10.16Z" fill="#746C69"/>
<path d="M1099.83 0.300781L1102.9 7.32078L1091.24 18.6008L1090.4 10.1608L1099.83 0.300781Z" fill="#8B817C"/>
<path d="M1190.81 38.2103V176.79L1190.59 177.02L1184.55 174.2V40.9203L1190.65 38.0703L1190.81 38.2103Z" fill="#746C69"/>
<path d="M1190.59 177.019L1137.8 231.369H1137.68L1134.71 224.999H1134.82L1184.55 174.739V174.199L1190.59 177.019Z" fill="#8B817C"/>
<path d="M1134.72 224.999L1137.68 231.369H167.207L169.546 224.359L170.096 224.999H1134.72Z" fill="#8B817C"/>
<path d="M1052.96 0L1050.49 6.57L1050.36 6.46H582.147L581.857 6.75L578.898 0H1052.96Z" fill="#8B817C"/>
<path d="M567.581 11.03L568.431 19.91L548.148 8L551.147 0H551.337L567.581 11.03Z" fill="#746C69"/>
<path d="M551.151 0L548.152 8L547.502 7.62H35.7784L35.5884 7.77L32.7695 0.26L33.1194 0H551.151Z" fill="#8B817C"/>
<path d="M169.545 224.36L167.206 231.37H166.646L149.922 213.17L149.652 213.43V201.63L149.792 201.48L160.038 213.34L169.545 224.36Z" fill="#746C69"/>
<path d="M149.654 201.629V213.429L135.279 227.439L132.66 219.059L132.69 218.969L133.42 219.229L139.158 212.999L149.654 201.629Z" fill="#8B817C"/>
<path d="M132.66 219.059L135.279 227.439L135.219 227.499L118.615 222.209L115.227 213.489L115.646 212.949L125.113 216.289L132.69 218.969L132.66 219.059Z" fill="#746C69"/>
<path d="M109.697 232.13L109.687 232.14H36.1649L35.875 231.71L39.6436 224.16L40.2333 225H106.188L106.748 224.28L109.697 232.13Z" fill="#8B817C"/>
<path d="M39.6431 224.16L35.8745 231.71L7.35547 189.87L13.703 188.06L13.9929 187.84L39.6431 224.16Z" fill="#5E5858"/>
<path d="M32.7674 0.261719L35.5863 7.77172L7.18724 30.0517L0 26.2117V25.6617C9.24645 18.3517 24.2807 6.54172 32.7674 0.261719Z" fill="#8B817C"/>
<path d="M7.14726 189.561L7.35718 189.871L0 191.981V26.2109L7.18724 30.0509L7.14726 30.0809V189.561Z" fill="#776F6D"/>
<g style="mix-blend-mode:multiply" opacity="0.25">
<path d="M1157.36 0H1100.12L1099.83 0.3L1090.4 10.16L1090.08 10.5L1079.09 3.5L1078.35 4.1L1068.09 12.5L1067.3 11.84L1053.1 0H578.858L568.282 11.5L567.582 11.03L551.339 0H33.1173L32.7674 0.26C24.2807 6.54 9.24645 18.35 0 25.66V192.29L32.5375 238.37L32.9873 239H112.957L120.414 229.5L121.563 229.91L137.407 235.5L137.727 235.16L149.443 222.5L149.653 222.74L163.647 239H1140.67L1140.81 238.8L1141.01 238.59L1198.35 180.66L1198.5 180.5V34.31L1157.36 0ZM1184.55 40.92V174.74L1134.82 225H170.095L169.545 224.36L160.039 213.36L149.793 201.5L149.653 201.65L139.157 213L133.419 219.23L132.689 218.97L125.112 216.29L115.646 213L115.226 213.54L109.448 220.9L106.749 224.33L106.189 225.05H40.2146L39.6248 224.21L13.9946 187.84V32.45C21.3618 26.65 30.8482 19.24 37.7755 14H547.04L560.425 23.08L569.302 29.08L570.411 29.83L578.578 21L584.996 14H1048.03L1059.13 23.25L1067.3 30.06L1068.01 30.65L1076.96 23.33L1079.27 21.44L1080.12 20.74L1082.56 22.31L1092.23 28.45L1100.17 20.15L1105.89 14.15L1106.08 13.95H1152.27L1184.55 40.87V40.92Z" fill="#7C7C7C"/>
</g>
<path d="M636.588 183.999V176.489C636.589 176.045 636.491 175.608 636.303 175.206C636.115 174.805 635.84 174.451 635.498 174.169C619.53 160.081 605.884 143.562 595.063 125.219C621.253 123.459 635.578 107.619 635.578 80.2187C635.578 45.9987 604.01 45.9987 590.525 45.9987C587.796 45.9987 578.84 46.0787 569.353 46.1587C559.867 46.2387 550.091 46.3287 547.132 46.3287C537.306 46.3287 529.738 46.0087 529.659 45.9987C529.129 45.9767 528.602 46.0957 528.133 46.3436C527.664 46.5915 527.27 46.9594 526.989 47.4097C526.709 47.8601 526.553 48.3767 526.537 48.9071C526.521 49.4374 526.646 49.9625 526.9 50.4287L528.439 53.2787C531.728 59.3587 532.437 70.2787 532.437 118.049C532.437 150.109 532.028 162.749 530.778 168.689C530.728 168.799 530.688 168.909 530.648 169.019C530.608 169.129 528.979 173.669 524.52 175.149C524.079 175.298 523.679 175.548 523.351 175.879C522.794 176.412 522.351 177.052 522.049 177.761C521.746 178.47 521.59 179.233 521.59 180.004C521.59 180.775 521.746 181.537 522.049 182.246C522.351 182.955 522.794 183.596 523.351 184.129C523.913 184.691 524.675 185.008 525.47 185.009H567.534C568.329 185.008 569.091 184.691 569.653 184.129C570.375 183.417 570.942 182.564 571.319 181.622C571.696 180.681 571.874 179.672 571.842 178.659C571.745 177.8 571.451 176.975 570.983 176.248C570.515 175.521 569.885 174.912 569.143 174.469C568.943 174.339 564.145 171.149 562.566 162.859C562.186 158.169 561.986 151.189 561.916 139.859L594.114 185.759C594.391 186.154 594.759 186.477 595.187 186.7C595.615 186.923 596.09 187.039 596.573 187.039H633.629C634.022 187.033 634.411 186.951 634.773 186.795C635.135 186.639 635.463 186.414 635.738 186.132C636.012 185.849 636.229 185.516 636.375 185.15C636.52 184.784 636.593 184.393 636.588 183.999V183.999ZM600.042 83.8487C600.042 85.3087 600.042 89.1687 588.226 90.7287C584.326 91.1972 580.399 91.411 576.471 91.3687C572.282 91.3687 566.474 91.3687 562.976 91.2987V76.4687C566.414 76.4087 572.132 76.3287 575.971 76.3287C595.953 76.3287 600.042 79.3387 600.042 83.8487Z" fill="black" stroke="black" stroke-miterlimit="10"/>
<path d="M1157.36 46.2713H1038.4C1037.61 46.2713 1036.84 46.5873 1036.28 47.1499C1035.72 47.7125 1035.4 48.4756 1035.4 49.2713V84.5312C1035.41 84.816 1035.45 85.0988 1035.53 85.3713C1023.76 61.5813 996.549 44.8813 964.841 44.8813C926.856 44.8813 895.198 68.9412 889.04 100.421C883.902 68.0013 851.734 42.8813 812.929 42.8813C770.526 42.8813 736.029 72.8113 736.029 109.611C736.029 135.521 753.142 158.011 778.013 169.061C777.038 168.95 776.05 169.034 775.108 169.309C774.166 169.583 773.288 170.043 772.525 170.661C772.24 170.884 771.999 171.159 771.815 171.471L770.896 173.011C765.787 181.181 761.399 181.541 760.899 181.551C760.78 181.535 760.659 181.535 760.54 181.551H693.565C691.566 181.551 689.407 180.931 688.657 176.401V155.791C689.387 117.411 691.076 27.5413 691.076 22.0312C691.076 17.0312 694.815 14.3013 698.433 11.6213L699.373 10.9313C701.672 9.20125 702.912 7.30125 703.052 5.29125C703.114 4.58822 703.029 3.87984 702.802 3.21163C702.575 2.54341 702.21 1.93015 701.732 1.41125C701.17 0.84848 700.408 0.53195 699.613 0.53125H641.635C641.04 0.531903 640.459 0.709424 639.966 1.04125C639.248 1.47356 638.649 2.07707 638.221 2.7978C637.794 3.51852 637.552 4.33399 637.517 5.17125C637.437 8.22125 640.266 10.5013 640.885 10.9713C646.383 14.9013 646.533 19.1312 646.533 19.3112V184.721C646.533 184.971 646.533 185.211 646.533 185.451V185.671C646.463 187.381 646.393 188.971 646.323 190.391C645.104 205.611 639.206 209.551 636.977 211.041C636.244 211.513 635.614 212.127 635.124 212.847C634.633 213.567 634.293 214.379 634.122 215.233C633.951 216.088 633.954 216.968 634.13 217.822C634.307 218.675 634.653 219.484 635.148 220.201C635.423 220.612 635.794 220.948 636.23 221.18C636.666 221.412 637.153 221.533 637.647 221.531H776.593C779.532 221.531 781.032 220.311 781.771 219.281C782.179 218.689 782.462 218.021 782.603 217.316C782.744 216.611 782.74 215.885 782.591 215.181V173.001C782.592 172.606 782.515 172.214 782.364 171.848C782.213 171.483 781.991 171.151 781.711 170.871C781.48 170.651 781.237 170.444 780.982 170.251C791.163 174.287 802.018 176.351 812.969 176.331C850.955 176.331 882.603 152.271 888.76 120.781C893.938 153.241 926.096 178.331 964.911 178.331C1007.3 178.331 1041.8 148.391 1041.8 111.591C1041.79 102.805 1039.81 94.1335 1036.01 86.2113C1036.42 86.8155 1037.04 87.2469 1037.74 87.4212C1038.64 87.6766 1039.57 87.7489 1040.49 87.6339C1041.41 87.5189 1042.3 87.219 1043.11 86.7521C1043.91 86.2852 1044.61 85.6609 1045.16 84.9167C1045.72 84.1725 1046.12 83.3238 1046.34 82.4212C1048.4 76.3212 1051.4 74.8412 1052.11 74.5612H1070.46C1072.78 74.5612 1074.46 75.1612 1075.58 76.3812C1077.66 78.6512 1077.34 82.5012 1077.34 82.5212C1077.31 82.8804 1077.34 83.2422 1077.43 83.5912V105.911C1077.43 133.841 1077.22 146.361 1076.64 153.021C1076.59 153.248 1076.56 153.479 1076.55 153.711C1076.55 154.031 1076.07 161.531 1063.55 165.711C1062.92 165.917 1062.37 166.333 1062 166.891C1060.38 169.321 1059.81 173.101 1062.38 175.671C1062.95 176.234 1063.71 176.551 1064.5 176.551H1131.48C1132.27 176.551 1133.03 176.234 1133.6 175.671C1136.17 173.101 1135.6 169.321 1133.98 166.891C1133.61 166.336 1133.06 165.921 1132.43 165.711C1123.43 162.711 1120.65 158.041 1119.76 155.381C1119.03 149.891 1118.76 138.581 1118.76 107.801V79.6913C1119.47 76.1713 1121.6 74.5312 1125.44 74.5312H1143.77C1144.59 74.8512 1147.53 76.3913 1149.56 82.3913C1149.78 83.2938 1150.18 84.1425 1150.74 84.8867C1151.29 85.6309 1151.99 86.2552 1152.79 86.7221C1153.6 87.189 1154.49 87.4889 1155.41 87.6039C1156.33 87.7189 1157.26 87.6466 1158.16 87.3913C1158.81 87.2285 1159.38 86.8538 1159.79 86.3266C1160.2 85.7994 1160.43 85.1499 1160.43 84.4813V49.2713C1160.43 48.8713 1160.35 48.4754 1160.19 48.1068C1160.04 47.7382 1159.81 47.4043 1159.52 47.1248C1159.24 46.8453 1158.9 46.6258 1158.53 46.4792C1158.15 46.3326 1157.76 46.2619 1157.36 46.2713ZM964.431 79.5312C984.274 79.5312 1000.42 92.7612 1000.42 109.031C1000.42 125.301 984.274 138.531 964.431 138.531C944.589 138.531 928.445 125.301 928.445 109.031C928.445 92.7612 944.639 79.5312 964.461 79.5312H964.431ZM812.49 77.5312C832.332 77.5312 848.476 90.7612 848.476 107.031C848.476 123.301 832.332 136.531 812.49 136.531C792.647 136.531 776.503 123.301 776.503 107.031C776.503 90.7612 792.697 77.5312 812.52 77.5312H812.49Z" fill="black" stroke="black" stroke-miterlimit="10"/>
<path d="M376.653 171.081L375.233 170.421C371.664 168.791 366.776 166.561 364.587 156.791C364.237 152.061 364.027 142.321 364.007 128.511H374.283C403.102 128.511 418.327 114.711 418.327 88.6013C418.327 70.4713 412.629 58.6013 400.903 52.4113C390.807 47.0513 377.812 47.0513 368.326 47.0513C365.657 47.0513 360.759 47.1613 355.571 47.2813C349.483 47.4213 343.195 47.5713 339.227 47.5713C334.989 47.5713 330.93 47.5713 327.152 47.4113C326.379 47.3957 325.631 47.6786 325.062 48.2013C324.629 47.965 324.169 47.7805 323.693 47.6513C323.454 47.5914 323.209 47.5612 322.963 47.5613H271.653C271.455 47.5609 271.257 47.581 271.063 47.6213C270.29 47.7284 269.563 48.0504 268.964 48.5507C268.364 49.051 267.918 49.7095 267.674 50.4513C266.955 52.8513 268.734 54.9613 269.534 55.7613C271.299 57.5162 272.967 59.3656 274.532 61.3013L251.181 90.8313C243.034 80.0013 231.908 65.1013 230.739 63.1113C230.559 62.2613 231.438 59.1113 234.737 55.7613C235.917 54.5913 238.666 51.8413 237.466 48.9513C237.136 48.2188 236.598 47.5997 235.919 47.1711C235.24 46.7426 234.45 46.5235 233.647 46.5413H180.308C179.73 46.5381 179.153 46.5985 178.589 46.7213C178.659 46.2313 178.709 45.7213 178.778 45.2513C180.638 36.6813 183.837 30.2513 187.345 28.0813C187.704 27.8549 188.011 27.5549 188.245 27.2013C188.769 26.4334 189.119 25.5609 189.273 24.6441C189.427 23.7273 189.379 22.788 189.135 21.8913C188.857 21.1244 188.402 20.4344 187.806 19.8781C187.209 19.3217 186.49 18.915 185.706 18.6913C185.059 18.4625 184.353 18.4625 183.707 18.6913C180.478 19.1513 157.367 18.9413 136.835 18.5013C136.219 18.4831 135.613 18.6617 135.105 19.0113C134.334 19.5107 133.69 20.1845 133.227 20.9783C132.763 21.772 132.492 22.6636 132.436 23.5813C132.463 24.4856 132.722 25.3678 133.19 26.1422C133.658 26.9166 134.317 27.557 135.105 28.0013C136.105 28.6313 138.704 32.8213 139.404 44.3313C139.404 45.7113 139.514 47.1413 139.554 48.6013V49.0013C139.554 49.3713 139.554 49.7413 139.554 50.1213C139.554 51.0613 139.554 52.1213 139.663 53.1913C139.803 58.7713 139.883 65.1913 139.933 72.8713C139.854 73.0945 139.801 73.326 139.773 73.5613C139.773 73.8413 138.604 80.5613 125.779 80.5613C109.435 80.5613 106.496 77.2413 105.786 69.2913C105.786 69.1013 105.786 68.9213 105.726 68.7013C105.786 61.2513 105.896 54.7013 106.056 48.8613C106.556 44.3913 108.435 33.8613 115.233 30.1913C115.489 30.0602 115.722 29.8879 115.923 29.6813C116.646 28.9731 117.213 28.1217 117.588 27.1815C117.964 26.2412 118.139 25.233 118.102 24.2213C118.022 23.3582 117.739 22.5263 117.277 21.793C116.815 21.0597 116.187 20.4459 115.443 20.0013C114.952 19.6713 114.375 19.4939 113.783 19.4913H59.8041C59.3323 19.4913 58.8669 19.6008 58.4446 19.8113C56.9833 20.576 55.8655 21.8657 55.3158 23.4213C55.0742 24.1838 54.9903 24.9876 55.0694 25.7836C55.1484 26.5796 55.3887 27.3512 55.7757 28.0513C55.9196 28.3338 56.1049 28.5934 56.3255 28.8213C57.4015 29.9034 58.3846 31.0742 59.2643 32.3213L59.3843 32.4813C60.7079 34.122 61.7239 35.9887 62.3831 37.9913C62.3954 38.0362 62.4121 38.0797 62.4331 38.1213C63.7305 41.4166 64.5225 44.8891 64.7822 48.4213C66.6515 70.8113 64.9621 187.001 64.7822 196.801C64.0695 198.272 63.23 199.677 62.2732 201.001C62.2032 201.111 62.1332 201.221 62.0732 201.331C59.8141 205.461 55.4658 208.231 49.1582 209.561C48.5906 209.681 48.0698 209.962 47.6588 210.371C47.1024 210.903 46.6595 211.543 46.357 212.251C46.0544 212.959 45.8984 213.721 45.8984 214.491C45.8984 215.261 46.0544 216.023 46.357 216.732C46.6595 217.44 47.1024 218.079 47.6588 218.611C48.2206 219.174 48.9829 219.491 49.778 219.491H101.758C102.159 219.491 102.555 219.411 102.924 219.255C103.294 219.1 103.628 218.872 103.907 218.584C104.187 218.297 104.406 217.957 104.552 217.584C104.698 217.211 104.768 216.812 104.757 216.411C104.367 202.201 104.757 185.191 105.117 168.741C105.387 156.461 105.667 143.741 105.617 132.531C106.146 125.531 107.226 121.221 108.835 119.611C111.534 116.911 125.899 109.831 136.665 119.691C136.865 119.921 139.663 123.331 139.663 134.691C139.663 135.339 139.697 135.987 139.763 136.631C139.643 151.911 139.334 180.801 138.554 203.901C138.544 204.018 138.544 204.135 138.554 204.251C138.519 204.666 138.571 205.083 138.706 205.476C138.841 205.87 139.057 206.231 139.339 206.536C139.621 206.842 139.963 207.085 140.344 207.252C140.725 207.418 141.137 207.503 141.553 207.501H184.646C185.441 207.501 186.204 207.184 186.765 206.621C187.322 206.089 187.765 205.45 188.067 204.742C188.37 204.033 188.526 203.271 188.526 202.501C188.526 201.731 188.37 200.969 188.067 200.261C187.765 199.553 187.322 198.913 186.765 198.381C186.378 197.998 185.894 197.725 185.366 197.591C180.228 196.301 178.109 189.901 177.279 185.991C177.209 172.721 177.179 135.621 177.179 122.991C177.179 106.801 177.249 79.2113 177.389 68.4513C177.569 65.8013 177.649 63.1813 177.649 60.4513C177.649 58.8113 177.649 57.2113 177.749 55.6413L226.52 116.001V157.051C226.52 166.841 216.614 170.761 216.204 170.921C216.104 170.953 216.007 170.993 215.914 171.041C215.327 171.327 214.808 171.736 214.392 172.239C213.977 172.743 213.674 173.33 213.505 173.961C212.865 176.391 214.305 178.811 214.765 179.501C215.039 179.91 215.409 180.246 215.843 180.477C216.277 180.709 216.762 180.831 217.254 180.831H278.83C279.299 180.832 279.761 180.722 280.18 180.511C280.831 180.215 281.4 179.764 281.837 179.198C282.275 178.631 282.567 177.967 282.689 177.261C282.771 176.409 282.658 175.549 282.358 174.747C282.058 173.944 281.58 173.221 280.959 172.631C280.704 172.378 280.406 172.172 280.08 172.021C271.083 167.941 269.973 160.751 269.864 159.821V128.211C269.864 116.441 274.482 112.511 274.482 112.511C274.624 112.398 274.758 112.275 274.882 112.141C275.321 111.661 316.236 67.1413 324.073 58.8713V74.0513C324.323 81.4013 324.423 92.2013 324.423 111.341C324.423 129.701 324.313 140.871 324.073 148.801V153.231C324.073 153.381 323.933 168.461 311.877 171.911C311.478 172.025 311.106 172.221 310.786 172.486C310.466 172.751 310.204 173.08 310.018 173.451C309.099 175.291 308.699 178.111 310.578 179.991C310.857 180.271 311.189 180.493 311.555 180.644C311.92 180.795 312.312 180.872 312.707 180.871H377.362C378.157 180.871 378.92 180.554 379.481 179.991C380.01 179.448 380.406 178.79 380.636 178.068C380.867 177.346 380.927 176.58 380.811 175.831C380.501 173.901 379.102 172.311 376.653 171.081ZM358.29 91.1513V75.6613C359.519 75.6613 361.059 75.6613 362.758 75.6613C377.572 75.6613 384.749 78.0613 384.749 82.9813C384.749 85.6613 384.749 91.2313 363.758 91.2313C361.278 91.2013 359.519 91.1813 358.29 91.1513Z" fill="black" stroke="black" stroke-miterlimit="10"/>
<path d="M521.917 55.2993C521.917 47.5193 517.429 47.2993 516.919 47.2993H420.776C419.943 47.2323 419.108 47.4047 418.369 47.7962C417.631 48.1877 417.02 48.782 416.607 49.5093C415.388 51.7993 416.817 54.2693 417.287 54.9693C417.419 55.1726 417.577 55.3575 417.757 55.5193L418.646 57.2493C421.835 63.4393 422.495 64.7293 422.495 114.689C422.495 131.179 422.415 142.079 422.215 149.839C422.15 150.2 422.15 150.569 422.215 150.929C422.305 151.519 424.124 165.629 406.811 171.689C406.386 171.838 406 172.081 405.681 172.399C405.032 173.049 402.952 175.399 403.582 178.059C403.785 178.852 404.194 179.577 404.769 180.161C405.343 180.744 406.061 181.164 406.851 181.379C407.158 181.479 407.478 181.529 407.801 181.529H452.224C454.363 181.859 456.528 181.993 458.691 181.929C460.77 181.929 463.429 181.979 466.608 181.979H472.606C483.342 181.979 496.167 181.749 503.824 181.639L510.981 181.549C511.913 181.621 512.846 181.442 513.686 181.033C514.526 180.623 515.242 179.997 515.759 179.219C516.187 178.411 516.429 177.518 516.467 176.604C516.505 175.691 516.338 174.78 515.979 173.939V139.449C515.978 138.654 515.662 137.891 515.099 137.329C514.556 136.692 513.861 136.201 513.079 135.902C512.296 135.603 511.451 135.506 510.621 135.619C509.911 135.747 509.24 136.038 508.662 136.47C508.085 136.903 507.615 137.464 507.292 138.109C507.135 138.422 507.033 138.761 506.993 139.109C506.539 142.533 505.264 145.796 503.274 148.619C502.954 149.079 502.644 149.529 502.354 149.929C501.576 150.99 500.72 151.993 499.795 152.929C499.71 153.004 499.63 153.084 499.555 153.169L498.906 153.939C495.537 156.939 490.499 158.939 477.264 158.939H463.969C457.581 158.939 456.212 155.599 455.512 152.289V144.549C455.512 142.089 455.562 139.039 455.562 135.369C455.562 131.139 456.562 128.889 458.631 128.679H474.815C483.122 128.679 488.999 129.679 492.208 131.579C493.739 132.492 495.199 133.518 496.577 134.649C498.236 136.859 499.955 137.949 501.825 137.969C502.495 137.974 503.158 137.826 503.763 137.539C504.369 137.252 504.902 136.831 505.323 136.309C505.715 135.787 505.925 135.152 505.923 134.499V93.3693C505.922 92.5739 505.606 91.8113 505.043 91.2493C503.224 89.4193 501.365 88.7193 499.525 89.1493C498.724 89.3652 497.99 89.7772 497.388 90.3481C496.786 90.9189 496.335 91.6307 496.077 92.4193C496.03 92.5529 495.993 92.69 495.967 92.8293C494.737 99.6093 489.709 102.029 486.041 103.259L485.661 103.389C482.074 103.956 478.446 104.217 474.815 104.169H460.82C460.57 104.169 460.33 104.169 460.061 104.169C456.572 104.169 455.972 102.599 455.482 100.169V81.5793C456.592 75.0793 461.93 73.5793 464.379 73.2393H491.908C495.373 73.2102 498.832 73.525 502.234 74.1793C508.882 76.1793 509.991 78.8193 511.061 81.3693C511.428 82.2881 511.883 83.1689 512.42 83.9993C512.858 84.7849 513.491 85.4443 514.258 85.9138C515.025 86.3833 515.9 86.6469 516.799 86.6793C517.725 86.629 518.627 86.3599 519.43 85.8941C520.232 85.4283 520.913 84.7789 521.417 83.9993C521.743 83.5072 521.917 82.9297 521.917 82.3392V55.2993Z" fill="black" stroke="black" stroke-miterlimit="10"/>
<g opacity="0.49">
<path opacity="0.49" d="M636.588 189.003V181.493C636.589 181.049 636.491 180.611 636.303 180.21C636.115 179.809 635.84 179.455 635.498 179.173C619.53 165.085 605.884 148.565 595.063 130.223C621.253 128.463 635.578 112.623 635.578 85.2226C635.578 51.0026 604.01 51.0026 590.525 51.0026C587.796 51.0026 578.84 51.0826 569.353 51.1626C559.867 51.2426 550.091 51.3326 547.132 51.3326C537.306 51.3326 529.738 51.0126 529.659 51.0026C529.129 50.9806 528.602 51.0996 528.133 51.3475C527.664 51.5954 527.27 51.9633 526.989 52.4136C526.709 52.864 526.553 53.3806 526.537 53.911C526.521 54.4413 526.646 54.9664 526.9 55.4326L528.439 58.2826C531.728 64.3626 532.437 75.2826 532.437 123.053C532.437 155.113 532.028 167.753 530.778 173.693C530.728 173.803 530.688 173.913 530.648 174.023C530.608 174.133 528.979 178.673 524.52 180.153C524.079 180.302 523.679 180.552 523.351 180.883C522.794 181.416 522.351 182.056 522.049 182.765C521.746 183.474 521.59 184.237 521.59 185.008C521.59 185.778 521.746 186.541 522.049 187.25C522.351 187.959 522.794 188.6 523.351 189.133C523.913 189.695 524.675 190.012 525.47 190.013H567.534C568.329 190.012 569.091 189.695 569.653 189.133C570.375 188.421 570.942 187.568 571.319 186.626C571.696 185.685 571.874 184.676 571.842 183.663C571.745 182.804 571.451 181.979 570.983 181.252C570.515 180.525 569.885 179.916 569.143 179.473C568.943 179.343 564.145 176.153 562.566 167.863C562.186 163.173 561.986 156.193 561.916 144.863L594.114 190.763C594.391 191.158 594.759 191.481 595.187 191.704C595.615 191.927 596.09 192.043 596.573 192.043H633.629C634.022 192.037 634.411 191.955 634.773 191.799C635.135 191.643 635.463 191.418 635.738 191.136C636.012 190.853 636.229 190.52 636.375 190.154C636.52 189.788 636.593 189.397 636.588 189.003ZM600.042 88.8526C600.042 90.3126 600.042 94.1726 588.226 95.7326C584.326 96.2011 580.399 96.4149 576.471 96.3726C572.282 96.3726 566.474 96.3726 562.976 96.3026V81.4726C566.414 81.4126 572.132 81.3326 575.971 81.3326C595.953 81.3326 600.042 84.3426 600.042 88.8526Z" fill="black" stroke="black" stroke-miterlimit="10"/>
<path opacity="0.49" d="M1157.36 51.2713H1038.4C1037.61 51.2713 1036.84 51.5873 1036.28 52.1499C1035.72 52.7125 1035.4 53.4756 1035.4 54.2713V89.5312C1035.41 89.816 1035.45 90.0988 1035.53 90.3713C1023.76 66.5813 996.549 49.8813 964.841 49.8813C926.856 49.8813 895.198 73.9412 889.04 105.421C883.902 73.0013 851.734 47.8813 812.929 47.8813C770.526 47.8813 736.029 77.8113 736.029 114.611C736.029 140.521 753.142 163.011 778.013 174.061C777.038 173.95 776.05 174.034 775.108 174.309C774.166 174.583 773.288 175.043 772.525 175.661C772.24 175.884 771.999 176.159 771.815 176.471L770.896 178.011C765.787 186.181 761.399 186.541 760.899 186.551C760.78 186.535 760.659 186.535 760.54 186.551H693.565C691.566 186.551 689.407 185.931 688.657 181.401V160.791C689.387 122.411 691.076 32.5413 691.076 27.0312C691.076 22.0312 694.815 19.3013 698.433 16.6213L699.373 15.9312C701.672 14.2012 702.912 12.3012 703.052 10.2912C703.114 9.58822 703.029 8.87984 702.802 8.21163C702.575 7.54341 702.21 6.93015 701.732 6.41125C701.17 5.84848 700.408 5.53195 699.613 5.53125H641.635C641.04 5.5319 640.459 5.70942 639.966 6.04125C639.248 6.47356 638.649 7.07707 638.221 7.7978C637.794 8.51852 637.552 9.33399 637.517 10.1712C637.437 13.2212 640.266 15.5013 640.885 15.9713C646.383 19.9013 646.533 24.1312 646.533 24.3112V189.721C646.533 189.971 646.533 190.211 646.533 190.451V190.671C646.463 192.381 646.393 193.971 646.323 195.391C645.104 210.611 639.206 214.551 636.977 216.041C636.244 216.513 635.614 217.127 635.124 217.847C634.633 218.567 634.293 219.379 634.122 220.233C633.951 221.088 633.954 221.968 634.13 222.822C634.307 223.675 634.653 224.484 635.148 225.201C635.423 225.612 635.794 225.948 636.23 226.18C636.666 226.412 637.153 226.533 637.647 226.531H776.593C779.532 226.531 781.032 225.311 781.771 224.281C782.179 223.689 782.462 223.021 782.603 222.316C782.744 221.611 782.74 220.885 782.591 220.181V178.001C782.592 177.606 782.515 177.214 782.364 176.848C782.213 176.483 781.991 176.151 781.711 175.871C781.48 175.651 781.237 175.444 780.982 175.251C791.163 179.287 802.018 181.351 812.969 181.331C850.955 181.331 882.603 157.271 888.76 125.781C893.938 158.241 926.096 183.331 964.911 183.331C1007.3 183.331 1041.8 153.391 1041.8 116.591C1041.79 107.805 1039.81 99.1335 1036.01 91.2113C1036.42 91.8155 1037.04 92.2469 1037.74 92.4212C1038.64 92.6766 1039.57 92.7489 1040.49 92.6339C1041.41 92.5189 1042.3 92.219 1043.11 91.7521C1043.91 91.2852 1044.61 90.6609 1045.16 89.9167C1045.72 89.1725 1046.12 88.3238 1046.34 87.4212C1048.4 81.3212 1051.4 79.8412 1052.11 79.5612H1070.46C1072.78 79.5612 1074.46 80.1612 1075.58 81.3812C1077.66 83.6512 1077.34 87.5012 1077.34 87.5212C1077.31 87.8804 1077.34 88.2422 1077.43 88.5912V110.911C1077.43 138.841 1077.22 151.361 1076.64 158.021C1076.59 158.248 1076.56 158.479 1076.55 158.711C1076.55 159.031 1076.07 166.531 1063.55 170.711C1062.92 170.917 1062.37 171.333 1062 171.891C1060.38 174.321 1059.81 178.101 1062.38 180.671C1062.95 181.234 1063.71 181.551 1064.5 181.551H1131.48C1132.27 181.551 1133.03 181.234 1133.6 180.671C1136.17 178.101 1135.6 174.321 1133.98 171.891C1133.61 171.336 1133.06 170.921 1132.43 170.711C1123.43 167.711 1120.65 163.041 1119.76 160.381C1119.03 154.891 1118.76 143.581 1118.76 112.801V84.6913C1119.47 81.1713 1121.6 79.5312 1125.44 79.5312H1143.77C1144.59 79.8512 1147.53 81.3913 1149.56 87.3913C1149.78 88.2938 1150.18 89.1425 1150.74 89.8867C1151.29 90.6309 1151.99 91.2552 1152.79 91.7221C1153.6 92.189 1154.49 92.4889 1155.41 92.6039C1156.33 92.7189 1157.26 92.6466 1158.16 92.3913C1158.81 92.2285 1159.38 91.8538 1159.79 91.3266C1160.2 90.7994 1160.43 90.1499 1160.43 89.4813V54.2713C1160.43 53.8713 1160.35 53.4754 1160.19 53.1068C1160.04 52.7382 1159.81 52.4043 1159.52 52.1248C1159.24 51.8453 1158.9 51.6258 1158.53 51.4792C1158.15 51.3326 1157.76 51.2619 1157.36 51.2713ZM964.431 84.5312C984.274 84.5312 1000.42 97.7612 1000.42 114.031C1000.42 130.301 984.274 143.531 964.431 143.531C944.589 143.531 928.445 130.301 928.445 114.031C928.445 97.7612 944.639 84.5312 964.461 84.5312H964.431ZM812.49 82.5312C832.332 82.5312 848.476 95.7612 848.476 112.031C848.476 128.301 832.332 141.531 812.49 141.531C792.647 141.531 776.503 128.301 776.503 112.031C776.503 95.7612 792.697 82.5312 812.52 82.5312H812.49Z" fill="black" stroke="black" stroke-miterlimit="10"/>
<path opacity="0.49" d="M376.656 176.081L375.237 175.421C371.668 173.791 366.78 171.561 364.591 161.791C364.241 157.061 364.031 147.321 364.011 133.511H374.287C403.106 133.511 418.33 119.711 418.33 93.6013C418.33 75.4713 412.633 63.6013 400.907 57.4113C390.811 52.0513 377.816 52.0513 368.33 52.0513C365.661 52.0513 360.763 52.1613 355.575 52.2813C349.487 52.4213 343.199 52.5713 339.231 52.5713C334.992 52.5713 330.934 52.5713 327.155 52.4113C326.383 52.3957 325.635 52.6786 325.066 53.2013C324.633 52.965 324.173 52.7805 323.697 52.6513C323.458 52.5914 323.213 52.5612 322.967 52.5613H271.657C271.459 52.5609 271.261 52.581 271.067 52.6213C270.294 52.7284 269.567 53.0504 268.967 53.5507C268.368 54.051 267.922 54.7095 267.678 55.4513C266.959 57.8513 268.738 59.9613 269.538 60.7613C271.303 62.5162 272.971 64.3656 274.536 66.3013L251.185 95.8313C243.038 85.0013 231.912 70.1013 230.742 68.1113C230.563 67.2613 231.442 64.1113 234.741 60.7613C235.92 59.5913 238.669 56.8413 237.47 53.9513C237.14 53.2188 236.602 52.5997 235.923 52.1711C235.244 51.7426 234.454 51.5235 233.651 51.5413H180.312C179.734 51.5381 179.157 51.5985 178.592 51.7213C178.662 51.2313 178.712 50.7213 178.782 50.2513C180.642 41.6813 183.84 35.2513 187.349 33.0813C187.708 32.8549 188.014 32.5549 188.249 32.2013C188.773 31.4334 189.123 30.5609 189.277 29.6441C189.431 28.7273 189.383 27.788 189.138 26.8913C188.861 26.1244 188.406 25.4344 187.809 24.8781C187.213 24.3217 186.494 23.915 185.71 23.6913C185.063 23.4625 184.357 23.4625 183.71 23.6913C180.482 24.1513 157.371 23.9413 136.838 23.5013C136.222 23.4831 135.617 23.6617 135.109 24.0113C134.338 24.5107 133.694 25.1845 133.231 25.9783C132.767 26.772 132.496 27.6636 132.44 28.5813C132.467 29.4856 132.726 30.3678 133.194 31.1422C133.662 31.9166 134.321 32.557 135.109 33.0013C136.109 33.6313 138.708 37.8213 139.407 49.3313C139.407 50.7113 139.517 52.1413 139.557 53.6013V54.0013C139.557 54.3713 139.557 54.7413 139.557 55.1213C139.557 56.0613 139.557 57.1213 139.667 58.1913C139.807 63.7713 139.887 70.1913 139.937 77.8713C139.858 78.0945 139.805 78.326 139.777 78.5613C139.777 78.8413 138.608 85.5613 125.783 85.5613C109.439 85.5613 106.5 82.2413 105.79 74.2913C105.79 74.1013 105.79 73.9213 105.73 73.7013C105.79 66.2513 105.9 59.7013 106.06 53.8613C106.56 49.3913 108.439 38.8613 115.237 35.1913C115.493 35.0602 115.726 34.8879 115.926 34.6813C116.65 33.9731 117.217 33.1217 117.592 32.1815C117.968 31.2412 118.142 30.233 118.106 29.2213C118.025 28.3582 117.743 27.5263 117.281 26.793C116.819 26.0597 116.19 25.4459 115.447 25.0013C114.956 24.6713 114.379 24.4939 113.787 24.4913H59.808C59.3362 24.4913 58.8709 24.6008 58.4485 24.8113C56.9872 25.576 55.8694 26.8657 55.3197 28.4213C55.0781 29.1838 54.9942 29.9876 55.0733 30.7836C55.1523 31.5796 55.3927 32.3512 55.7796 33.0513C55.9235 33.3338 56.1088 33.5934 56.3294 33.8213C57.4054 34.9034 58.3885 36.0742 59.2682 37.3213L59.3882 37.4813C60.7118 39.122 61.7278 40.9887 62.387 42.9913C62.3993 43.0362 62.416 43.0797 62.437 43.1213C63.7344 46.4166 64.5264 49.8891 64.7861 53.4213C66.6554 75.8113 64.966 192.001 64.7861 201.801C64.0734 203.272 63.2339 204.677 62.2771 206.001C62.2071 206.111 62.1371 206.221 62.0772 206.331C59.818 210.461 55.4697 213.231 49.1621 214.561C48.5945 214.681 48.0737 214.962 47.6627 215.371C47.1063 215.903 46.6634 216.543 46.3609 217.251C46.0583 217.959 45.9023 218.721 45.9023 219.491C45.9023 220.261 46.0583 221.023 46.3609 221.732C46.6634 222.44 47.1063 223.079 47.6627 223.611C48.2245 224.174 48.9868 224.491 49.7819 224.491H101.762C102.163 224.491 102.559 224.411 102.928 224.255C103.297 224.1 103.632 223.872 103.911 223.584C104.191 223.297 104.41 222.957 104.556 222.584C104.702 222.211 104.771 221.812 104.761 221.411C104.371 207.201 104.761 190.191 105.121 173.741C105.391 161.461 105.67 148.741 105.62 137.531C106.15 130.531 107.23 126.221 108.839 124.611C111.538 121.911 125.903 114.831 136.669 124.691C136.868 124.921 139.667 128.331 139.667 139.691C139.667 140.339 139.7 140.987 139.767 141.631C139.647 156.911 139.338 185.801 138.558 208.901C138.548 209.018 138.548 209.135 138.558 209.251C138.523 209.666 138.575 210.083 138.71 210.476C138.845 210.87 139.061 211.231 139.343 211.536C139.625 211.842 139.967 212.085 140.348 212.252C140.729 212.418 141.141 212.503 141.557 212.501H184.65C185.445 212.501 186.207 212.184 186.769 211.621C187.326 211.089 187.769 210.45 188.071 209.742C188.374 209.033 188.53 208.271 188.53 207.501C188.53 206.731 188.374 205.969 188.071 205.261C187.769 204.553 187.326 203.913 186.769 203.381C186.382 202.998 185.898 202.725 185.37 202.591C180.232 201.301 178.113 194.901 177.283 190.991C177.213 177.721 177.183 140.621 177.183 127.991C177.183 111.801 177.253 84.2113 177.393 73.4513C177.573 70.8013 177.653 68.1813 177.653 65.4513C177.653 63.8113 177.653 62.2113 177.753 60.6413L226.524 121.001V162.051C226.524 171.841 216.618 175.761 216.208 175.921C216.108 175.953 216.011 175.993 215.918 176.041C215.331 176.327 214.812 176.736 214.396 177.239C213.981 177.743 213.678 178.33 213.509 178.961C212.869 181.391 214.309 183.811 214.769 184.501C215.043 184.91 215.413 185.246 215.847 185.477C216.281 185.709 216.766 185.831 217.258 185.831H278.834C279.303 185.832 279.765 185.722 280.183 185.511C280.835 185.215 281.404 184.764 281.841 184.198C282.279 183.631 282.571 182.967 282.693 182.261C282.775 181.409 282.661 180.549 282.362 179.747C282.062 178.944 281.584 178.221 280.963 177.631C280.708 177.378 280.41 177.172 280.084 177.021C271.087 172.941 269.977 165.751 269.867 164.821V133.211C269.867 121.441 274.486 117.511 274.486 117.511C274.628 117.398 274.762 117.275 274.886 117.141C275.325 116.661 316.24 72.1413 324.077 63.8713V79.0513C324.327 86.4013 324.427 97.2013 324.427 116.341C324.427 134.701 324.317 145.871 324.077 153.801V158.231C324.077 158.381 323.937 173.461 311.881 176.911C311.482 177.025 311.11 177.221 310.79 177.486C310.47 177.751 310.208 178.08 310.022 178.451C309.102 180.291 308.703 183.111 310.582 184.991C310.861 185.271 311.193 185.493 311.559 185.644C311.924 185.795 312.316 185.872 312.711 185.871H377.366C378.161 185.871 378.924 185.554 379.485 184.991C380.014 184.448 380.409 183.79 380.64 183.068C380.871 182.346 380.931 181.58 380.815 180.831C380.505 178.901 379.106 177.311 376.656 176.081ZM358.294 96.1513V80.6613C359.523 80.6613 361.062 80.6613 362.762 80.6613C377.576 80.6613 384.753 83.0613 384.753 87.9813C384.753 90.6613 384.753 96.2313 363.761 96.2313C361.282 96.2013 359.523 96.1813 358.294 96.1513Z" fill="black" stroke="black" stroke-miterlimit="10"/>
<path opacity="0.49" d="M521.921 60.3032C521.921 52.5232 517.432 52.3032 516.923 52.3032H420.78C419.946 52.2362 419.112 52.4086 418.373 52.8001C417.635 53.1916 417.023 53.7859 416.611 54.5132C415.392 56.8032 416.821 59.2732 417.291 59.9732C417.422 60.1765 417.58 60.3614 417.761 60.5232L418.65 62.2532C421.839 68.4432 422.499 69.7332 422.499 119.693C422.499 136.183 422.419 147.083 422.219 154.843C422.154 155.204 422.154 155.573 422.219 155.933C422.309 156.523 424.128 170.633 406.815 176.693C406.39 176.842 406.004 177.085 405.685 177.403C405.036 178.053 402.956 180.403 403.586 183.063C403.789 183.856 404.198 184.581 404.773 185.165C405.347 185.748 406.065 186.168 406.855 186.383C407.162 186.482 407.482 186.533 407.804 186.533H452.227C454.367 186.863 456.531 186.997 458.695 186.933C460.774 186.933 463.433 186.983 466.612 186.983H472.61C483.346 186.983 496.171 186.753 503.828 186.643L510.985 186.553C511.916 186.624 512.85 186.446 513.69 186.037C514.53 185.627 515.245 185.001 515.763 184.223C516.191 183.415 516.433 182.522 516.471 181.608C516.509 180.694 516.342 179.784 515.983 178.943V144.453C515.982 143.658 515.666 142.895 515.103 142.333C514.56 141.696 513.865 141.205 513.082 140.906C512.3 140.607 511.455 140.51 510.625 140.623C509.915 140.751 509.244 141.042 508.666 141.474C508.088 141.907 507.619 142.468 507.296 143.113C507.139 143.426 507.037 143.765 506.996 144.113C506.543 147.537 505.267 150.8 503.278 153.623C502.958 154.083 502.648 154.533 502.358 154.933C501.579 155.994 500.724 156.997 499.799 157.933C499.714 158.008 499.634 158.088 499.559 158.173L498.91 158.943C495.541 161.943 490.503 163.943 477.268 163.943H463.973C457.585 163.943 456.216 160.603 455.516 157.293V149.553C455.516 147.093 455.566 144.043 455.566 140.373C455.566 136.143 456.566 133.893 458.635 133.683H474.819C483.126 133.683 489.003 134.683 492.212 136.583C493.743 137.496 495.203 138.522 496.58 139.653C498.24 141.863 499.959 142.953 501.828 142.973C502.499 142.977 503.162 142.83 503.767 142.543C504.373 142.256 504.906 141.835 505.327 141.313C505.718 140.791 505.929 140.156 505.927 139.503V98.3732C505.926 97.5778 505.61 96.8152 505.047 96.2532C503.228 94.4232 501.369 93.7232 499.529 94.1532C498.728 94.3691 497.994 94.7811 497.392 95.352C496.79 95.9228 496.339 96.6346 496.081 97.4232C496.033 97.5568 495.997 97.6939 495.971 97.8332C494.741 104.613 489.713 107.033 486.044 108.263L485.665 108.393C482.078 108.96 478.45 109.221 474.819 109.173H460.824C460.574 109.173 460.334 109.173 460.064 109.173C456.576 109.173 455.976 107.603 455.486 105.173V86.5832C456.596 80.0832 461.934 78.5832 464.383 78.2432H491.912C495.377 78.2141 498.836 78.529 502.238 79.1832C508.886 81.1832 509.995 83.8232 511.065 86.3732C511.431 87.292 511.887 88.1728 512.424 89.0032C512.862 89.7888 513.495 90.4482 514.262 90.9177C515.029 91.3872 515.904 91.6508 516.803 91.6832C517.729 91.6329 518.631 91.3638 519.434 90.898C520.236 90.4322 520.917 89.7829 521.421 89.0032C521.747 88.5111 521.921 87.9336 521.921 87.3432V60.3032Z" fill="black" stroke="black" stroke-miterlimit="10"/>
</g>
<path d="M1156.47 83.9305L1156.54 82.9305C1156.54 82.9305 1155.54 65.9305 1146.55 59.9305L1157.44 48.4805H1157.87V83.7805C1157.42 83.9038 1156.94 83.9544 1156.47 83.9305V83.9305Z" fill="#CF9513"/>
<path d="M1157.45 48.5195L1146.56 59.9995H1117.57C1110.58 59.9995 1098.58 68.9995 1098.58 68.9995C1090.58 60.9995 1076.59 59.9995 1076.59 59.9995H1050.6C1046.6 61.9995 1043.6 71.9995 1042.6 76.9995C1041.6 81.9995 1038.95 83.8095 1038.95 83.8095V48.5195H1157.46H1157.45Z" fill="#FFFF23"/>
<path d="M1132.69 169.74C1117.94 171.4 1098.58 154 1098.58 154V69C1098.58 69 1110.57 60 1117.57 60H1146.56C1155.56 66 1156.56 83 1156.56 83L1156.49 84C1153.65 83.88 1152.89 80.85 1152.89 80.85C1149.89 71.85 1144.66 70.85 1144.66 70.85H1125.9C1118.9 70.85 1116.81 75.41 1116.22 78.73V107C1116.22 137.68 1116.43 149.5 1117.22 155.25C1118.22 158.44 1121.4 164.25 1131.88 167.75C1132.26 168.362 1132.53 169.035 1132.69 169.74V169.74Z" fill="url(#paint2_linear_1814_6028)"/>
<path d="M1098.58 154C1098.58 154 1117.96 171.43 1132.7 169.77C1132.83 170.297 1132.83 170.849 1132.69 171.374C1132.55 171.899 1132.28 172.379 1131.9 172.77H1064.93C1064.57 172.405 1064.3 171.957 1064.15 171.465C1064.01 170.973 1063.98 170.453 1064.09 169.95C1067.29 169.83 1084.99 168.47 1098.58 154Z" fill="#C58C11"/>
<path d="M1076.59 60C1076.59 60 1090.58 61 1098.58 69V154C1084.99 168.5 1067.3 169.86 1064.1 170C1064.24 169.226 1064.52 168.486 1064.94 167.82C1079.93 162.82 1080.03 153.05 1080.03 153.05C1080.65 146.3 1080.87 133.36 1080.87 105.22V82.22L1080.76 82.09C1080.76 82.09 1081.89 70.83 1070.9 70.83H1052.14C1052.14 70.83 1046.91 71.83 1043.91 80.83C1043.91 80.83 1042.91 84.83 1038.91 83.83C1038.91 83.83 1041.56 82.02 1042.56 77.02C1043.56 72.02 1046.56 62.02 1050.56 60.02L1076.59 60Z" fill="url(#paint3_linear_1814_6028)"/>
<path d="M909.652 109.47C909.652 82.68 934.703 61 965.631 61C996.559 61 1021.61 82.71 1021.61 109.5C1021.61 136.29 996.539 158 965.631 158C934.723 158 909.652 136.26 909.652 109.47ZM1003.97 108.28C1003.97 90.28 986.513 75.78 964.981 75.78C963.422 75.78 961.892 75.86 960.383 76.01C941.02 77.9 925.996 91.63 925.996 108.28C925.996 125.67 942.38 139.87 962.982 140.74C963.642 140.74 964.311 140.74 964.981 140.74C986.503 140.78 1003.96 126.23 1003.96 108.28H1003.97Z" fill="url(#paint4_linear_1814_6028)"/>
<path d="M965.628 158C996.546 158 1021.61 136.29 1021.61 109.5C1021.61 82.7102 996.536 61.0002 965.628 61.0002C934.719 61.0002 909.649 82.7102 909.649 109.5C909.649 136.29 934.699 158 965.628 158ZM1039.29 110.89C1039.29 141.48 1014.3 167.03 980.982 173.2C975.839 174.157 970.619 174.635 965.388 174.63C924.583 174.63 891.496 146.09 891.496 110.89C891.496 75.6902 924.583 47.1602 965.388 47.1602C968.157 47.1602 970.896 47.2902 973.585 47.5502C1010.53 51.0002 1039.28 78.0502 1039.28 110.86L1039.29 110.89Z" fill="url(#paint5_linear_1814_6028)"/>
<path d="M869.668 107.47C869.668 134.26 844.608 155.97 813.689 155.97C782.771 155.97 757.711 134.26 757.711 107.47C757.711 80.68 782.761 59 813.689 59C844.618 59 869.668 80.68 869.668 107.47ZM852.025 106.28C852.025 88.28 834.571 73.78 813.04 73.78C812.15 73.78 811.27 73.78 810.401 73.85C790.099 74.98 774.055 89.07 774.055 106.28C774.055 124.28 791.508 138.78 813.04 138.78C834.571 138.78 852.015 124.23 852.015 106.28H852.025Z" fill="url(#paint6_linear_1814_6028)"/>
<path d="M757.708 107.469C757.708 134.259 782.768 155.969 813.686 155.969C844.604 155.969 869.665 134.259 869.665 107.469C869.665 80.6789 844.594 58.9989 813.686 58.9989C782.778 58.9989 757.708 80.6789 757.708 107.469ZM887.348 108.859C887.348 138.859 863.357 164.009 830.98 170.789C825.213 171.996 819.338 172.602 813.446 172.599C772.642 172.599 739.555 144.059 739.555 108.859C739.555 73.6589 772.642 45.1289 813.446 45.1289C816.945 45.1289 820.44 45.3426 823.912 45.7689C859.759 50.1489 887.338 76.7189 887.338 108.859H887.348Z" fill="url(#paint7_linear_1814_6028)"/>
<path d="M780.042 172.261V214.781C780.16 215.145 780.187 215.532 780.12 215.909C780.054 216.285 779.897 216.64 779.662 216.941L763.668 199.941C763.668 199.941 775.313 190.231 779.472 171.781C779.678 171.921 779.869 172.082 780.042 172.261V172.261Z" fill="#CF9513"/>
<path d="M700.072 2.78125C700.389 3.14068 700.566 3.602 700.572 4.08125C681.639 7.20125 668.744 23.0012 668.744 23.0012C659.508 10.0512 643.464 4.79125 641.055 4.06125C641.223 3.52802 641.578 3.07348 642.054 2.78125H700.032H700.072Z" fill="#FFFF23"/>
<path d="M779.699 216.94C779.346 217.255 778.93 217.493 778.479 217.638C778.028 217.782 777.551 217.831 777.08 217.78H638.134C637.789 217.214 637.574 216.579 637.504 215.92V215.92C637.504 215.92 661.745 208 671.741 196C671.741 196 679.738 200 686.735 200H763.705L779.699 216.94Z" fill="#C58C11"/>
<path d="M669.742 187L686.655 178C687.535 180.94 689.524 183.77 694.082 183.77H761.057C761.057 183.77 767.244 184.64 774.002 173.84C774.302 173.32 774.621 172.84 774.941 172.25C774.941 172.25 777.36 170.34 779.51 171.8C775.341 190.26 763.706 200 763.706 200H686.735C679.738 200 671.741 196 671.741 196V195C670.344 192.567 669.469 189.87 669.172 187.08L669.742 187Z" fill="url(#paint8_linear_1814_6028)"/>
<path d="M668.744 22.9981C668.744 22.9981 681.639 7.19812 700.572 4.07812C700.572 4.95812 700.132 6.23813 698.073 7.77813C694.074 10.7781 688.577 14.2781 688.577 21.2781C688.577 26.7981 686.887 117.038 686.167 154.978V175.868C686.278 176.592 686.438 177.307 686.647 178.008L669.744 186.998L669.174 187.078C668.65 183.074 668.506 179.029 668.744 174.998V22.9981Z" fill="url(#paint9_linear_1814_6028)"/>
<path d="M671.74 195.999C661.744 207.999 637.513 215.949 637.513 215.949C637.449 215.323 637.569 214.693 637.858 214.135C638.148 213.577 638.594 213.116 639.142 212.809C641.841 211.009 648.509 206.279 649.818 189.909C649.888 188.389 649.968 186.789 650.028 185.059C650.028 184.709 650.028 184.359 650.028 183.999V18.5486C650.028 18.5486 650.118 12.7786 643.121 7.77859C643.121 7.77859 640.552 5.84859 641.122 4.05859C643.531 4.78859 659.575 10.0586 668.801 22.9686V174.999C668.563 179.03 668.707 183.075 669.231 187.079C669.51 189.864 670.364 192.561 671.74 194.999V195.999Z" fill="url(#paint10_linear_1814_6028)"/>
<path d="M627.759 178C628.914 178.136 630.086 178.009 631.185 177.628C632.284 177.247 633.283 176.622 634.107 175.8V183.31H597.051L603.768 167L627.759 178Z" fill="#C58C11"/>
<path d="M634.098 175.769C633.279 176.595 632.283 177.225 631.185 177.611C630.087 177.998 628.917 178.13 627.761 177.999L603.77 166.999C603.77 166.999 593.774 153.999 583.777 139.999C579.671 134.356 576.311 128.205 573.781 121.699H590.505C601.834 142.087 616.579 160.376 634.098 175.769V175.769Z" fill="url(#paint11_linear_1814_6028)"/>
<path d="M617.763 72.9982C617.763 72.9982 621.761 83.9982 615.763 93.9982C609.766 103.998 600.769 106.998 591.773 106.998C582.776 106.998 572.78 112.998 571.78 114.998C571.78 114.998 568.781 111.998 554.787 110.998C551.524 107.775 549.436 103.549 548.859 98.9982C548.818 98.6664 548.795 98.3326 548.789 97.9982V64.9982C548.789 64.9982 550.788 60.9982 557.786 60.9982H592.772C592.772 60.9982 610.765 59.9982 617.763 72.9982ZM603.408 84.6782C603.51 84.1579 603.561 83.6286 603.558 83.0982C603.571 82.1508 603.426 81.2078 603.128 80.3082C601.129 74.1382 591.643 72.5782 576.528 72.5782C570.531 72.5782 560.535 72.7682 560.535 72.7682V93.5182C560.535 93.5182 570.611 93.6182 577.018 93.6182C581.063 93.6752 585.106 93.4681 589.124 92.9982C597.001 91.9982 602.438 89.5882 603.408 84.7482V84.6782Z" fill="url(#paint12_linear_1814_6028)"/>
<path d="M583.777 140C593.774 154 603.77 167 603.77 167L597.062 183.31L559.387 129.59L571.782 115C572.264 117.284 572.933 119.525 573.781 121.7C576.311 128.205 579.671 134.356 583.777 140V140Z" fill="url(#paint13_linear_1814_6028)"/>
<path d="M567.999 181.281H525.945C525.619 180.997 525.37 180.635 525.22 180.23C525.07 179.825 525.023 179.389 525.085 178.961C538.91 178.811 547.776 167.961 547.776 167.961C557.772 178.961 568.768 179.521 568.768 179.521H569.078C568.83 180.169 568.464 180.766 567.999 181.281V181.281Z" fill="#C58C11"/>
<path d="M568.001 176.27C568.569 176.568 569.001 177.071 569.211 177.676C569.421 178.282 569.392 178.945 569.131 179.53H568.781C568.781 179.53 557.785 179 547.789 168V125C547.789 119 554.786 111 554.786 111C568.781 112 571.78 115 571.78 115L559.385 129.59C559.385 146.84 559.575 156.59 560.074 162.59C561.954 172.5 568.001 176.27 568.001 176.27Z" fill="url(#paint14_linear_1814_6028)"/>
<path d="M548.79 65.0012L530.137 48.3012C530.996 48.3012 538.254 48.6312 547.65 48.6312C553.518 48.6312 585.525 48.3012 591.053 48.3012C596.039 48.2239 601.024 48.5147 605.968 49.1712C619.542 51.1712 633.107 57.8212 633.107 79.4912C633.107 113.181 611.575 121.701 590.544 121.701H573.78C572.931 119.526 572.263 117.286 571.781 115.001C572.78 113.001 582.776 107.001 591.773 107.001C600.77 107.001 609.766 104.001 615.764 94.0012C621.762 84.0012 617.763 73.0012 617.763 73.0012C610.766 60.0012 592.773 61.0012 592.773 61.0012H557.786C550.789 61.0012 548.79 65.0012 548.79 65.0012Z" fill="url(#paint15_linear_1814_6028)"/>
<path d="M530.126 48.2695L548.789 64.9995V97.9995C548.795 98.3339 548.818 98.6676 548.859 98.9995C549.436 103.551 551.523 107.776 554.786 111C554.786 111 547.789 119 547.789 125V168C547.789 168 538.922 178.84 525.098 179C525.22 178.367 525.518 177.781 525.957 177.31C531.955 175.31 533.954 169.31 533.954 169.31L534.064 169.21C535.424 163.4 535.904 151.84 535.904 117.38C535.904 68.5795 535.214 57.8895 531.595 51.1795L530.046 48.3295L530.126 48.2695Z" fill="url(#paint16_linear_1814_6028)"/>
<path d="M519.441 81.6008C519.065 82.1417 518.546 82.5675 517.942 82.8308C517.992 71.9308 509.805 60.0008 509.805 60.0008L518.531 50.3008C519.001 50.9508 519.451 52.2108 519.451 54.5808V81.6008H519.441Z" fill="#CF9513"/>
<path d="M515.433 81.6C513.524 78.73 513.884 73.6 503.518 70.52C499.876 69.8147 496.172 69.4797 492.462 69.52H464.733C462.144 69.84 454.417 71.61 453.037 80.62V99.72C453.417 101.55 454.037 105.61 459.085 106.28C459.592 106.351 460.103 106.384 460.614 106.38C460.904 106.38 461.184 106.38 461.464 106.38H475.299C479.195 106.434 483.088 106.147 486.934 105.52C488.234 104.99 497.55 102.84 499.41 92.59C499.41 92.59 500.299 89.9 502.948 92.16L502.848 92.28C502.848 92.28 501.299 106.47 492.812 115H443.831C440.832 110 440.832 100 440.832 100V67C440.832 67 449.829 60 458.825 60H509.806C509.806 60 518.002 72 517.952 82.86C517.223 83.08 516.333 82.94 515.433 81.6Z" fill="url(#paint17_linear_1814_6028)"/>
<path d="M513.675 176.849L503.809 166.999C512.275 158.529 512.805 140.319 512.805 138.199C513.036 138.353 513.251 138.531 513.445 138.729V173.789C513.445 173.789 514.385 175.659 513.675 176.849Z" fill="#CF9513"/>
<path d="M492.812 114.999C501.309 106.499 502.859 92.3387 502.859 92.3387L502.959 92.2188C503.123 92.3536 503.28 92.4971 503.428 92.6488V133.719C503.216 133.965 502.921 134.125 502.599 134.169V134.169C502.599 134.169 498.81 119.999 492.812 114.999Z" fill="#C58C11"/>
<path d="M492.812 115C498.81 120 502.598 134.15 502.598 134.15C501.909 134.25 500.799 133.9 499.29 131.79C497.72 130.474 496.049 129.283 494.292 128.23C490.153 125.76 483.416 124.88 475.299 124.88H459.025C456.886 125.03 453.087 126.3 453.087 134.57C453.087 138.223 453.071 141.27 453.037 143.71V151.79C453.547 154.32 454.807 161.14 464.493 161.14H477.718C491.173 161.14 497.26 159.14 501.509 155.25L502.288 154.34C503.352 153.309 504.328 152.192 505.207 151C505.541 150.553 505.874 150.083 506.207 149.59C508.459 146.354 509.908 142.628 510.435 138.72C510.536 138.508 510.683 138.322 510.866 138.176C511.048 138.03 511.262 137.928 511.491 137.876C511.719 137.825 511.956 137.827 512.184 137.881C512.411 137.936 512.624 138.041 512.804 138.19C512.804 140.31 512.275 158.52 503.808 166.99C499.405 168.962 494.637 169.984 489.813 169.99H456.826C456.826 169.99 446.83 166.99 440.832 161.99V130C440.832 119 443.831 115 443.831 115H492.812Z" fill="url(#paint18_linear_1814_6028)"/>
<path d="M440.832 66.9986C436.943 63.0886 420.839 50.7686 419.84 49.9986C420.027 49.8202 420.251 49.6855 420.497 49.6043C420.742 49.523 421.003 49.4972 421.259 49.5286H517.392C517.617 49.5598 517.832 49.6417 518.021 49.7681C518.21 49.8946 518.368 50.0623 518.482 50.2586L509.805 59.9986H458.825C449.828 59.9986 440.832 66.9986 440.832 66.9986Z" fill="#FFFF23"/>
<path d="M399.916 54.2608C409.162 59.1208 415.84 68.7608 415.84 87.8408C415.84 116.551 396.737 124.761 374.786 124.761H361.521L347.276 111.551C348.417 110.137 350.062 109.223 351.864 109.001C358.862 108.001 378.854 108.001 378.854 108.001C378.854 108.001 397.847 108.001 400.846 93.0008C402.053 87.0616 402.053 80.94 400.846 75.0008C398.846 65.0008 385.851 61.0008 375.855 61.0008H352.864C352.864 61.0008 345.867 62.0008 342.868 67.0008L327.594 49.6608C330.593 49.7408 334.651 49.8208 339.739 49.8208C347.226 49.8208 363.19 49.3008 368.838 49.3008C379.024 49.3008 390.74 49.4308 399.916 54.2608Z" fill="url(#paint19_linear_1814_6028)"/>
<path d="M440.83 162C446.827 167 456.824 170 456.824 170H489.811C494.635 169.994 499.403 168.972 503.806 167L513.682 176.88C513.421 177.217 513.075 177.48 512.681 177.642C512.286 177.803 511.855 177.858 511.433 177.8C507.434 177.8 452.355 178.8 453.355 177.8H408.282C406.933 177.35 406.793 176.5 407.053 175.69C426.195 175.34 440.83 162 440.83 162Z" fill="#C58C11"/>
<path d="M440.83 100C440.83 100 440.83 110 443.828 115C443.828 115 440.83 119 440.83 130V162C440.83 162 426.205 175.37 407.062 175.69C407.341 174.981 407.759 174.335 408.292 173.79C428.284 166.79 425.665 149.79 425.665 149.79L425.725 149.86C425.945 141.68 426.025 130.28 426.025 114C426.025 62.69 425.335 62 421.707 54.93L420.567 52.72L420.307 52.62C420.307 52.62 419.168 50.86 419.838 50C420.837 50.76 436.901 63.08 440.78 67L440.83 100Z" fill="url(#paint20_linear_1814_6028)"/>
<path d="M375.855 61C385.851 61 398.846 65 400.845 75C402.052 80.9392 402.052 87.0608 400.845 93C397.846 108 378.853 108 378.853 108C378.853 108 358.861 108 351.864 109C350.061 109.232 348.419 110.158 347.286 111.58C344.567 109.41 343.517 104.39 343.117 100.85C342.969 99.5717 342.886 98.2867 342.867 97V67C345.866 62 352.863 61 352.863 61H375.855ZM364.289 93.44C387.49 93.44 388.28 86.51 388.28 82.2C388.28 75.94 381.912 73.44 374.495 72.47C370.77 72.0329 367.02 71.8358 363.269 71.88C359.031 71.88 355.802 71.97 355.802 71.97V93.28C355.802 93.28 357.022 93.44 364.289 93.44Z" fill="url(#paint21_linear_1814_6028)"/>
<path d="M344.867 123.998C344.867 115.998 346.866 111.998 346.866 111.998L347.286 111.578L361.531 124.788C361.531 138.018 361.681 150.678 362.151 156.508C364.929 169.288 372.087 171.168 375.835 173.038C376.87 173.44 377.73 174.194 378.264 175.168V175.168C359.662 172.318 344.867 157.998 344.867 157.998V123.998Z" fill="url(#paint22_linear_1814_6028)"/>
<path d="M344.868 158C344.868 158 359.672 172.35 378.255 175.18C378.388 175.515 378.423 175.881 378.355 176.235C378.288 176.589 378.122 176.917 377.875 177.18H313.22C313.045 176.981 312.914 176.747 312.839 176.493C312.763 176.24 312.743 175.972 312.78 175.71C314.09 175.42 335.171 171.53 344.868 158Z" fill="#C58C11"/>
<path d="M343.107 100.82C343.507 104.36 344.557 109.38 347.276 111.55L346.866 112C346.866 112 344.867 116 344.867 124V158C335.18 171.56 314.099 175.45 312.789 175.68C312.843 175.122 312.992 174.578 313.229 174.07C327.603 169.96 327.603 152.51 327.603 152.51V148.08C327.853 139.91 327.943 128.14 327.943 110.62C327.943 92.7502 327.863 81.1102 327.603 73.2302V49.6602L342.868 67.0002V97.0002C342.884 98.2767 342.964 99.5516 343.107 100.82Z" fill="url(#paint23_linear_1814_6028)"/>
<path d="M324.874 50.6098L293.886 63.9998C293.116 63.4898 292.317 62.9998 291.487 62.4298C283.59 57.3298 273.494 51.4298 271.305 50.2298C271.552 50.0205 271.854 49.8853 272.174 49.8398H323.495C324.013 49.9743 324.488 50.2394 324.874 50.6098V50.6098Z" fill="#FFFF23"/>
<path d="M271.293 50.1992C273.432 51.4392 283.578 57.2992 291.475 62.3992C287.411 61.0952 283.156 60.4834 278.89 60.5892C276.895 57.831 274.66 55.2543 272.212 52.8892C272.212 52.8892 270.363 51.0792 271.293 50.1992Z" fill="#C88E11"/>
<path d="M279.964 174.851C262.431 172.651 248.906 157.001 248.906 157.001V115.001C248.906 115.001 276.896 88.0006 293.889 64.0006L324.877 50.6406C325.547 51.3706 325.797 52.7006 323.518 54.9706C319.409 59.0806 273.227 109.391 273.227 109.391C273.227 109.391 267.419 113.761 267.419 127.491V159.281C267.419 159.281 268.099 168.941 279.415 174.071C279.626 174.31 279.81 174.571 279.964 174.851Z" fill="url(#paint24_linear_1814_6028)"/>
<path d="M279.963 174.85C280.104 175.03 280.201 175.239 280.246 175.463C280.291 175.686 280.284 175.917 280.225 176.137C280.166 176.358 280.056 176.561 279.905 176.731C279.754 176.902 279.565 177.035 279.354 177.12H217.777C217.385 176.506 217.101 175.83 216.938 175.12H217.017C217.017 175.12 237.909 171 248.905 157C248.905 157 262.43 172.65 279.963 174.85Z" fill="#C58C11"/>
<path d="M291.478 62.3998C292.307 62.9298 293.107 63.4598 293.877 63.9698C276.883 87.9698 248.894 114.97 248.894 114.97L213.258 66.4498L213.918 65.9998C217.736 62.1098 228.122 62.6598 228.122 62.6598H228.272C228.303 63.028 228.401 63.3874 228.562 63.7198C229.562 65.7198 251.653 95.0298 251.653 95.0298L278.893 60.5898C283.159 60.484 287.414 61.0959 291.478 62.3998V62.3998Z" fill="url(#paint25_linear_1814_6028)"/>
<path d="M248.906 157C237.911 171 217.029 175.18 217.029 175.18H216.919C216.776 174.781 216.783 174.344 216.937 173.949C217.091 173.553 217.383 173.227 217.758 173.03C217.758 173.03 230.024 168.43 230.024 156.36V114.23L248.906 115V157Z" fill="url(#paint26_linear_1814_6028)"/>
<path fill-rule="evenodd" clip-rule="evenodd" d="M228.112 62.63C228.112 62.63 217.726 62.08 213.918 66L213.268 66.48L212.918 66C212.918 66 223.794 51.49 235.189 49.25C235.509 49.73 235.339 50.76 233.19 52.92C229.682 56.43 228.052 60.31 228.282 62.64L228.112 62.63Z" fill="#C88E11"/>
<path d="M186.63 21.7286C175.605 25.8986 159.941 38.9986 159.941 38.9986C153.663 31.1586 141.248 24.5386 136.18 22.0586C136.452 21.5614 136.835 21.1337 137.299 20.8086C137.299 20.8086 149.515 21.0686 161.62 21.1886C173.255 21.3086 184.791 21.2986 185.281 20.8086C185.823 20.951 186.3 21.2759 186.63 21.7286V21.7286Z" fill="#FFFF23"/>
<path d="M212.915 66.0008L179.168 49.0908C179.686 48.8499 180.257 48.7433 180.827 48.7808H234.197C234.386 48.7765 234.573 48.8137 234.746 48.8897C234.918 48.9657 235.072 49.0787 235.196 49.2208C223.781 51.4608 212.915 66.0008 212.915 66.0008Z" fill="#FFFF23"/>
<path d="M179.171 49.0898L212.918 65.9998L213.268 66.4798L248.904 115L230.052 114.26L179.801 51.8598C179.801 51.8598 177.802 49.8598 179.161 49.0898H179.171Z" fill="url(#paint27_linear_1814_6028)"/>
<path d="M159.939 187C159.939 187 174.593 201.11 186.149 201.62C186.189 202.028 186.131 202.44 185.98 202.821C185.828 203.202 185.588 203.541 185.279 203.81H142.176L142.346 203.31H142.176L159.939 187Z" fill="#C58C11"/>
<path d="M159.938 39.0005C159.938 39.0005 175.602 25.9005 186.628 21.7305C187.448 23.0005 186.268 24.7805 186.268 24.7805C180.341 28.4905 177.442 38.8605 176.342 43.9605C175.608 49.1712 175.254 54.4284 175.282 59.6905C175.282 62.5105 175.182 65.1205 175.023 67.5705C174.873 78.6505 174.813 106.76 174.813 122.24C174.813 133.64 174.813 172.24 174.913 185.59C175.912 190.65 178.561 198.1 185.269 199.78C185.737 200.281 186.04 200.912 186.138 201.59C174.583 201.08 159.938 187 159.938 187V127C159.938 109 151.941 97.0005 151.941 97.0005C151.941 97.0005 158.939 91.0005 158.939 77.0005C158.939 63.0005 159.938 39.0005 159.938 39.0005Z" fill="url(#paint28_linear_1814_6028)"/>
<path d="M159.94 127V187L142.187 203.31C142.837 184.05 143.186 158.52 143.406 135.79C143.337 135.196 143.301 134.598 143.296 134C143.296 120.2 139.298 116.81 139.298 116.81C127.303 105.81 111.309 112.81 107.31 116.81C104.141 119.98 103.492 128.17 103.222 131.74C103.342 157.89 101.672 190.74 102.352 215.81L84.9688 198V131C84.9688 131 84.9688 107 92.9657 97H151.943C151.943 97 159.94 109 159.94 127Z" fill="url(#paint29_linear_1814_6028)"/>
<path d="M136.169 22C141.238 24.48 153.653 31.1 159.93 38.94C159.93 38.94 158.931 62.94 158.931 76.94C158.931 90.94 151.933 96.94 151.933 96.94H92.9661C86.9684 88.94 85.9688 70.94 85.9688 70.94V42C85.9688 42 102.672 26.22 115.517 23.28C116.097 25.02 114.308 26.81 114.308 26.81C106.461 31.1 104.212 42.01 103.572 47.9C103.412 53.9533 103.299 60.7 103.232 68.14C103.232 68.36 103.292 68.58 103.312 68.81C104.312 79.81 110.309 82.81 126.303 82.81C142.297 82.81 143.297 73.23 143.297 73.23H143.487C143.487 65.23 143.357 58.35 143.217 52.36C143.147 51.36 143.107 50.36 143.107 49.43C143.107 48.9 143.107 48.43 143.107 47.87C143.107 46.36 143.007 44.87 142.947 43.52C142.297 32.78 139.878 26.52 137.319 24.82C135.79 23.78 135.79 22.78 136.169 22Z" fill="url(#paint30_linear_1814_6028)"/>
<path d="M115.504 23.2486C102.659 26.1886 85.9653 41.9986 85.9653 41.9986C79.3478 33.7186 63.8238 26.1286 58.6758 23.7586C58.9595 22.9234 59.5488 22.2267 60.3251 21.8086H114.304C114.856 22.139 115.279 22.6466 115.504 23.2486V23.2486Z" fill="#FFFF23"/>
<path d="M85.9657 71C85.9657 71 86.9653 89 92.963 97C84.966 107 84.966 131 84.966 131V198C76.7092 210.85 53.2582 213.93 49.4797 214.34C49.424 213.882 49.4714 213.417 49.6184 212.979C49.7654 212.541 50.0083 212.142 50.3293 211.81C58.8461 210.02 63.1244 205.99 65.2536 202.09C66.4499 200.437 67.4779 198.668 68.3224 196.81C68.3224 196.81 70.2617 71.16 68.3224 47.49C68.0347 43.6593 67.172 39.8937 65.7634 36.32C64.9934 33.9886 63.8119 31.8142 62.2747 29.9C61.2851 28.5108 60.1818 27.2063 58.976 26C58.5819 25.3196 58.4707 24.5116 58.6661 23.75V23.75C63.8142 26.1 79.3382 33.69 85.9657 42V71Z" fill="url(#paint31_linear_1814_6028)"/>
<path d="M84.9659 198L102.349 215.81H50.3692C49.9479 215.418 49.6522 214.91 49.5195 214.35V214.35C53.2481 213.9 76.6991 210.82 84.9659 198Z" fill="#C58C11"/>
<defs>
<linearGradient id="paint0_linear_1814_6028" x1="599.27" y1="13.82" x2="599.27" y2="220.85" gradientUnits="userSpaceOnUse">
<stop offset="0.01" stop-color="#2E2E2D"/>
<stop offset="0.5" stop-color="#454645"/>
<stop offset="0.99" stop-color="#2E2E2D"/>
</linearGradient>
<linearGradient id="paint1_linear_1814_6028" x1="599.27" y1="114" x2="599.27" y2="239" gradientUnits="userSpaceOnUse">
<stop stop-color="white"/>
<stop offset="0.13" stop-color="white" stop-opacity="0.8"/>
<stop offset="0.3" stop-color="white" stop-opacity="0.56"/>
<stop offset="0.47" stop-color="white" stop-opacity="0.36"/>
<stop offset="0.63" stop-color="white" stop-opacity="0.2"/>
<stop offset="0.77" stop-color="white" stop-opacity="0.09"/>
<stop offset="0.9" stop-color="white" stop-opacity="0.02"/>
<stop offset="0.99" stop-color="white" stop-opacity="0"/>
</linearGradient>
<linearGradient id="paint2_linear_1814_6028" x1="1127.56" y1="68.41" x2="1127.56" y2="163.99" gradientUnits="userSpaceOnUse">
<stop stop-color="#A57515"/>
<stop offset="0.13" stop-color="#D09612"/>
<stop offset="0.29" stop-color="#C08A13"/>
<stop offset="0.5" stop-color="#A57515"/>
<stop offset="0.78" stop-color="#CE9412"/>
<stop offset="0.83" stop-color="#D7A614"/>
<stop offset="0.92" stop-color="#EED61A"/>
<stop offset="0.98" stop-color="#FFF81E"/>
</linearGradient>
<linearGradient id="paint3_linear_1814_6028" x1="1101.4" y1="166.39" x2="1047.43" y2="40.265" gradientUnits="userSpaceOnUse">
<stop offset="0.03" stop-color="#FFFF23"/>
<stop offset="0.2" stop-color="#FFFD23"/>
<stop offset="0.27" stop-color="#FEF622"/>
<stop offset="0.33" stop-color="#FEE921"/>
<stop offset="0.37" stop-color="#FDD81F"/>
<stop offset="0.41" stop-color="#FCC11D"/>
<stop offset="0.43" stop-color="#FBB61C"/>
<stop offset="0.47" stop-color="#F2AF1A"/>
<stop offset="0.54" stop-color="#DB9D16"/>
<stop offset="0.6" stop-color="#C38A11"/>
<stop offset="0.78" stop-color="#C18811"/>
<stop offset="0.86" stop-color="#BA8211"/>
<stop offset="0.92" stop-color="#AE7810"/>
<stop offset="0.96" stop-color="#9C6A10"/>
<stop offset="0.97" stop-color="#9B6910"/>
</linearGradient>
<linearGradient id="paint4_linear_1814_6028" x1="988.162" y1="162.19" x2="939.129" y2="47.5736" gradientUnits="userSpaceOnUse">
<stop offset="0.03" stop-color="#FFFF23"/>
<stop offset="0.2" stop-color="#FFFD23"/>
<stop offset="0.27" stop-color="#FEF622"/>
<stop offset="0.33" stop-color="#FEE921"/>
<stop offset="0.37" stop-color="#FDD81F"/>
<stop offset="0.41" stop-color="#FCC11D"/>
<stop offset="0.43" stop-color="#FBB61C"/>
<stop offset="0.47" stop-color="#F2AF1A"/>
<stop offset="0.54" stop-color="#DB9D16"/>
<stop offset="0.6" stop-color="#C38A11"/>
<stop offset="0.78" stop-color="#C18811"/>
<stop offset="0.86" stop-color="#BA8211"/>
<stop offset="0.92" stop-color="#AE7810"/>
<stop offset="0.96" stop-color="#9C6A10"/>
<stop offset="0.97" stop-color="#9B6910"/>
</linearGradient>
<linearGradient id="paint5_linear_1814_6028" x1="929.751" y1="30.7102" x2="997.809" y2="183.681" gradientUnits="userSpaceOnUse">
<stop offset="0.03" stop-color="#FFFF23"/>
<stop offset="0.2" stop-color="#FFFD23"/>
<stop offset="0.27" stop-color="#FEF622"/>
<stop offset="0.33" stop-color="#FEE921"/>
<stop offset="0.37" stop-color="#FDD81F"/>
<stop offset="0.41" stop-color="#FCC11D"/>
<stop offset="0.43" stop-color="#FBB61C"/>
<stop offset="0.47" stop-color="#F2AF1A"/>
<stop offset="0.54" stop-color="#DB9D16"/>
<stop offset="0.6" stop-color="#C38A11"/>
<stop offset="0.69" stop-color="#B98210"/>
<stop offset="0.84" stop-color="#9E6B0E"/>
<stop offset="0.97" stop-color="#82540B"/>
</linearGradient>
<linearGradient id="paint6_linear_1814_6028" x1="836.221" y1="160.19" x2="787.188" y2="45.5736" gradientUnits="userSpaceOnUse">
<stop offset="0.03" stop-color="#FFFF23"/>
<stop offset="0.2" stop-color="#FFFD23"/>
<stop offset="0.27" stop-color="#FEF622"/>
<stop offset="0.33" stop-color="#FEE921"/>
<stop offset="0.37" stop-color="#FDD81F"/>
<stop offset="0.41" stop-color="#FCC11D"/>
<stop offset="0.43" stop-color="#FBB61C"/>
<stop offset="0.47" stop-color="#F2AF1A"/>
<stop offset="0.54" stop-color="#DB9D16"/>
<stop offset="0.6" stop-color="#C38A11"/>
<stop offset="0.78" stop-color="#C18811"/>
<stop offset="0.86" stop-color="#BA8211"/>
<stop offset="0.92" stop-color="#AE7810"/>
<stop offset="0.96" stop-color="#9C6A10"/>
<stop offset="0.97" stop-color="#9B6910"/>
</linearGradient>
<linearGradient id="paint7_linear_1814_6028" x1="777.81" y1="28.7089" x2="845.878" y2="181.68" gradientUnits="userSpaceOnUse">
<stop offset="0.03" stop-color="#FFFF23"/>
<stop offset="0.2" stop-color="#FFFD23"/>
<stop offset="0.27" stop-color="#FEF622"/>
<stop offset="0.33" stop-color="#FEE921"/>
<stop offset="0.37" stop-color="#FDD81F"/>
<stop offset="0.41" stop-color="#FCC11D"/>
<stop offset="0.43" stop-color="#FBB61C"/>
<stop offset="0.47" stop-color="#F2AF1A"/>
<stop offset="0.54" stop-color="#DB9D16"/>
<stop offset="0.6" stop-color="#C38A11"/>
<stop offset="0.69" stop-color="#B98210"/>
<stop offset="0.84" stop-color="#9E6B0E"/>
<stop offset="0.97" stop-color="#82540B"/>
</linearGradient>
<linearGradient id="paint8_linear_1814_6028" x1="767.244" y1="212.92" x2="682.426" y2="153.8" gradientUnits="userSpaceOnUse">
<stop stop-color="#FFFF23"/>
<stop offset="0.35" stop-color="#FFFD23"/>
<stop offset="0.49" stop-color="#FFF621"/>
<stop offset="0.6" stop-color="#FFEA1F"/>
<stop offset="0.68" stop-color="#FFD81C"/>
<stop offset="0.76" stop-color="#FFC219"/>
<stop offset="0.77" stop-color="#FFBE18"/>
<stop offset="0.78" stop-color="#F7B818"/>
<stop offset="0.81" stop-color="#EBAE17"/>
<stop offset="0.85" stop-color="#E4A917"/>
<stop offset="0.94" stop-color="#E2A717"/>
</linearGradient>
<linearGradient id="paint9_linear_1814_6028" x1="684.598" y1="18.1381" x2="684.598" y2="177.298" gradientUnits="userSpaceOnUse">
<stop stop-color="#D09612"/>
<stop offset="0.22" stop-color="#C08A13"/>
<stop offset="0.5" stop-color="#A57515"/>
<stop offset="0.97" stop-color="#CE9412"/>
</linearGradient>
<linearGradient id="paint10_linear_1814_6028" x1="654.587" y1="9.33859" x2="654.587" y2="217.659" gradientUnits="userSpaceOnUse">
<stop stop-color="#FFBE18"/>
<stop offset="0.02" stop-color="#FFC619"/>
<stop offset="0.06" stop-color="#FFDE1D"/>
<stop offset="0.11" stop-color="#FFFF23"/>
<stop offset="0.23" stop-color="#FFE81F"/>
<stop offset="0.42" stop-color="#FFCA1A"/>
<stop offset="0.53" stop-color="#FFBE18"/>
<stop offset="0.64" stop-color="#FFC619"/>
<stop offset="0.81" stop-color="#FFDE1D"/>
<stop offset="1" stop-color="#FFFF23"/>
</linearGradient>
<linearGradient id="paint11_linear_1814_6028" x1="643.804" y1="176.859" x2="564.575" y2="121.638" gradientUnits="userSpaceOnUse">
<stop stop-color="#FFFF23"/>
<stop offset="0.19" stop-color="#FFFC22"/>
<stop offset="0.34" stop-color="#FFF221"/>
<stop offset="0.47" stop-color="#FFE21E"/>
<stop offset="0.59" stop-color="#FFCB1A"/>
<stop offset="0.65" stop-color="#FFBE18"/>
<stop offset="0.8" stop-color="#EEB117"/>
<stop offset="0.94" stop-color="#E2A717"/>
</linearGradient>
<linearGradient id="paint12_linear_1814_6028" x1="594.671" y1="113.558" x2="565.344" y2="44.9964" gradientUnits="userSpaceOnUse">
<stop offset="0.03" stop-color="#FFFF23"/>
<stop offset="0.1" stop-color="#FFFB23"/>
<stop offset="0.18" stop-color="#FEEF21"/>
<stop offset="0.25" stop-color="#FDDB20"/>
<stop offset="0.33" stop-color="#FCBF1D"/>
<stop offset="0.35" stop-color="#FBB61C"/>
<stop offset="0.38" stop-color="#E8A718"/>
<stop offset="0.44" stop-color="#C38A11"/>
<stop offset="0.7" stop-color="#C18811"/>
<stop offset="0.81" stop-color="#BA8211"/>
<stop offset="0.9" stop-color="#AE7810"/>
<stop offset="0.96" stop-color="#9C6A10"/>
<stop offset="0.97" stop-color="#9B6910"/>
</linearGradient>
<linearGradient id="paint13_linear_1814_6028" x1="581.568" y1="120.22" x2="581.568" y2="179.64" gradientUnits="userSpaceOnUse">
<stop offset="0.01" stop-color="#A57515"/>
<stop offset="0.95" stop-color="#D09612"/>
</linearGradient>
<linearGradient id="paint14_linear_1814_6028" x1="559.774" y1="116.24" x2="559.774" y2="175.87" gradientUnits="userSpaceOnUse">
<stop stop-color="#996A13"/>
<stop offset="0.1" stop-color="#9B6C13"/>
<stop offset="0.15" stop-color="#A57515"/>
<stop offset="0.95" stop-color="#D09612"/>
</linearGradient>
<linearGradient id="paint15_linear_1814_6028" x1="580.197" y1="56.2912" x2="604.635" y2="127.315" gradientUnits="userSpaceOnUse">
<stop stop-color="#FFFF23"/>
<stop offset="0.1" stop-color="#FFFC22"/>
<stop offset="0.18" stop-color="#FFF221"/>
<stop offset="0.25" stop-color="#FFE11E"/>
<stop offset="0.31" stop-color="#FFCA1A"/>
<stop offset="0.34" stop-color="#FFBE18"/>
<stop offset="0.36" stop-color="#EEB017"/>
<stop offset="0.41" stop-color="#D39A16"/>
<stop offset="0.47" stop-color="#BC8815"/>
<stop offset="0.53" stop-color="#AB7914"/>
<stop offset="0.61" stop-color="#9F6F13"/>
<stop offset="0.72" stop-color="#986A13"/>
<stop offset="1" stop-color="#966813"/>
</linearGradient>
<linearGradient id="paint16_linear_1814_6028" x1="539.932" y1="51.5295" x2="539.932" y2="180.03" gradientUnits="userSpaceOnUse">
<stop stop-color="#FFBE18"/>
<stop offset="0.02" stop-color="#FFC619"/>
<stop offset="0.06" stop-color="#FFDE1D"/>
<stop offset="0.11" stop-color="#FFFF23"/>
<stop offset="0.23" stop-color="#FFE81F"/>
<stop offset="0.42" stop-color="#FFCA1A"/>
<stop offset="0.53" stop-color="#FFBE18"/>
<stop offset="0.64" stop-color="#FFC619"/>
<stop offset="0.81" stop-color="#FFDE1D"/>
<stop offset="1" stop-color="#FFFF23"/>
</linearGradient>
<linearGradient id="paint17_linear_1814_6028" x1="491.563" y1="120.95" x2="459.184" y2="45.269" gradientUnits="userSpaceOnUse">
<stop offset="0.03" stop-color="#FFFF23"/>
<stop offset="0.1" stop-color="#FFFB23"/>
<stop offset="0.18" stop-color="#FEEF21"/>
<stop offset="0.25" stop-color="#FDDB20"/>
<stop offset="0.33" stop-color="#FCBF1D"/>
<stop offset="0.35" stop-color="#FBB61C"/>
<stop offset="0.38" stop-color="#E8A718"/>
<stop offset="0.44" stop-color="#C38A11"/>
<stop offset="0.7" stop-color="#C18811"/>
<stop offset="0.81" stop-color="#BA8211"/>
<stop offset="0.9" stop-color="#AE7810"/>
<stop offset="0.96" stop-color="#9C6A10"/>
<stop offset="0.97" stop-color="#9B6910"/>
</linearGradient>
<linearGradient id="paint18_linear_1814_6028" x1="489.243" y1="179.14" x2="454.034" y2="96.8598" gradientUnits="userSpaceOnUse">
<stop offset="0.03" stop-color="#FFFF23"/>
<stop offset="0.1" stop-color="#FFFB23"/>
<stop offset="0.18" stop-color="#FEEF21"/>
<stop offset="0.25" stop-color="#FDDB20"/>
<stop offset="0.33" stop-color="#FCBF1D"/>
<stop offset="0.35" stop-color="#FBB61C"/>
<stop offset="0.38" stop-color="#E8A718"/>
<stop offset="0.44" stop-color="#C38A11"/>
<stop offset="0.59" stop-color="#B37C10"/>
<stop offset="0.73" stop-color="#AA7510"/>
<stop offset="0.91" stop-color="#9F6C10"/>
<stop offset="0.97" stop-color="#9B6910"/>
</linearGradient>
<linearGradient id="paint19_linear_1814_6028" x1="369.588" y1="59.7808" x2="393.375" y2="128.915" gradientUnits="userSpaceOnUse">
<stop stop-color="#FFFF23"/>
<stop offset="0.1" stop-color="#FFFC22"/>
<stop offset="0.18" stop-color="#FFF221"/>
<stop offset="0.25" stop-color="#FFE11E"/>
<stop offset="0.31" stop-color="#FFCA1A"/>
<stop offset="0.34" stop-color="#FFBE18"/>
<stop offset="0.36" stop-color="#EEB017"/>
<stop offset="0.41" stop-color="#D39A16"/>
<stop offset="0.47" stop-color="#BC8815"/>
<stop offset="0.53" stop-color="#AB7914"/>
<stop offset="0.61" stop-color="#9F6F13"/>
<stop offset="0.72" stop-color="#986A13"/>
<stop offset="1" stop-color="#966813"/>
</linearGradient>
<linearGradient id="paint20_linear_1814_6028" x1="425.435" y1="53.14" x2="425.435" y2="176.69" gradientUnits="userSpaceOnUse">
<stop stop-color="#FFBE18"/>
<stop offset="0.02" stop-color="#FFC619"/>
<stop offset="0.06" stop-color="#FFDE1D"/>
<stop offset="0.11" stop-color="#FFFF23"/>
<stop offset="0.23" stop-color="#FFE81F"/>
<stop offset="0.42" stop-color="#FFCA1A"/>
<stop offset="0.53" stop-color="#FFBE18"/>
<stop offset="0.64" stop-color="#FFC619"/>
<stop offset="0.81" stop-color="#FFDE1D"/>
<stop offset="1" stop-color="#FFFF23"/>
</linearGradient>
<linearGradient id="paint21_linear_1814_6028" x1="382.382" y1="113.5" x2="354.725" y2="48.8377" gradientUnits="userSpaceOnUse">
<stop offset="0.03" stop-color="#FFFF23"/>
<stop offset="0.1" stop-color="#FFFB23"/>
<stop offset="0.18" stop-color="#FEEF21"/>
<stop offset="0.25" stop-color="#FDDB20"/>
<stop offset="0.33" stop-color="#FCBF1D"/>
<stop offset="0.35" stop-color="#FBB61C"/>
<stop offset="0.38" stop-color="#E8A718"/>
<stop offset="0.44" stop-color="#C38A11"/>
<stop offset="0.7" stop-color="#C18811"/>
<stop offset="0.81" stop-color="#BA8211"/>
<stop offset="0.9" stop-color="#AE7810"/>
<stop offset="0.96" stop-color="#9C6A10"/>
<stop offset="0.97" stop-color="#9B6910"/>
</linearGradient>
<linearGradient id="paint22_linear_1814_6028" x1="361.561" y1="116.438" x2="361.561" y2="171.758" gradientUnits="userSpaceOnUse">
<stop stop-color="#996A13"/>
<stop offset="0.1" stop-color="#9B6C13"/>
<stop offset="0.15" stop-color="#A57515"/>
<stop offset="0.71" stop-color="#D09612"/>
<stop offset="0.77" stop-color="#D7A614"/>
<stop offset="0.88" stop-color="#EACF19"/>
<stop offset="0.99" stop-color="#FFFC1F"/>
</linearGradient>
<linearGradient id="paint23_linear_1814_6028" x1="330.032" y1="52.8002" x2="330.032" y2="176.68" gradientUnits="userSpaceOnUse">
<stop stop-color="#FFBE18"/>
<stop offset="0.02" stop-color="#FFC619"/>
<stop offset="0.06" stop-color="#FFDE1D"/>
<stop offset="0.11" stop-color="#FFFF23"/>
<stop offset="0.23" stop-color="#FFE81F"/>
<stop offset="0.42" stop-color="#FFCA1A"/>
<stop offset="0.53" stop-color="#FFBE18"/>
<stop offset="0.64" stop-color="#FFC619"/>
<stop offset="0.81" stop-color="#FFDE1D"/>
<stop offset="1" stop-color="#FFFF23"/>
</linearGradient>
<linearGradient id="paint24_linear_1814_6028" x1="287.112" y1="60.1606" x2="287.112" y2="168.231" gradientUnits="userSpaceOnUse">
<stop stop-color="#996A13"/>
<stop offset="0.1" stop-color="#9B6C13"/>
<stop offset="0.15" stop-color="#A57515"/>
<stop offset="0.71" stop-color="#D09612"/>
<stop offset="0.79" stop-color="#D19912"/>
<stop offset="0.85" stop-color="#D5A113"/>
<stop offset="0.89" stop-color="#DCB015"/>
<stop offset="0.93" stop-color="#E5C418"/>
<stop offset="0.96" stop-color="#F2DF1B"/>
<stop offset="0.99" stop-color="#FFFC1F"/>
</linearGradient>
<linearGradient id="paint25_linear_1814_6028" x1="280.232" y1="95.6398" x2="216.441" y2="51.1828" gradientUnits="userSpaceOnUse">
<stop offset="0.08" stop-color="#FFFF23"/>
<stop offset="0.17" stop-color="#FFF421"/>
<stop offset="0.34" stop-color="#FFD71C"/>
<stop offset="0.45" stop-color="#FFBE18"/>
<stop offset="0.49" stop-color="#F6B718"/>
<stop offset="0.56" stop-color="#EBAE17"/>
<stop offset="0.66" stop-color="#E4A817"/>
<stop offset="0.94" stop-color="#E2A717"/>
</linearGradient>
<linearGradient id="paint26_linear_1814_6028" x1="252.755" y1="158.89" x2="213.42" y2="131.485" gradientUnits="userSpaceOnUse">
<stop stop-color="#FFFF23"/>
<stop offset="0.19" stop-color="#FFFC22"/>
<stop offset="0.34" stop-color="#FFF221"/>
<stop offset="0.47" stop-color="#FFE21E"/>
<stop offset="0.59" stop-color="#FFCB1A"/>
<stop offset="0.65" stop-color="#FFBE18"/>
<stop offset="0.8" stop-color="#EEB117"/>
<stop offset="0.94" stop-color="#E2A717"/>
</linearGradient>
<linearGradient id="paint27_linear_1814_6028" x1="213.798" y1="54.1498" x2="213.798" y2="111.46" gradientUnits="userSpaceOnUse">
<stop offset="0.01" stop-color="#DB9F14"/>
<stop offset="0.25" stop-color="#D49914"/>
<stop offset="0.62" stop-color="#C08A15"/>
<stop offset="0.98" stop-color="#A57515"/>
</linearGradient>
<linearGradient id="paint28_linear_1814_6028" x1="169.425" y1="35.5505" x2="169.425" y2="192" gradientUnits="userSpaceOnUse">
<stop stop-color="#D09612"/>
<stop offset="0.22" stop-color="#C08A13"/>
<stop offset="0.5" stop-color="#A57515"/>
<stop offset="0.86" stop-color="#CE9412"/>
<stop offset="0.91" stop-color="#CF9712"/>
<stop offset="0.93" stop-color="#D49F13"/>
<stop offset="0.95" stop-color="#DCAE15"/>
<stop offset="0.97" stop-color="#E7C218"/>
<stop offset="0.99" stop-color="#F5DD1B"/>
<stop offset="1" stop-color="#FFF01D"/>
</linearGradient>
<linearGradient id="paint29_linear_1814_6028" x1="146.025" y1="211.35" x2="88.3" y2="76.446" gradientUnits="userSpaceOnUse">
<stop offset="0.03" stop-color="#FFFF23"/>
<stop offset="0.23" stop-color="#FCC61E"/>
<stop offset="0.29" stop-color="#FBB61C"/>
<stop offset="0.37" stop-color="#F4B11B"/>
<stop offset="0.48" stop-color="#E2A217"/>
<stop offset="0.61" stop-color="#C38A11"/>
<stop offset="0.62" stop-color="#BE8611"/>
<stop offset="0.65" stop-color="#B37C10"/>
<stop offset="0.69" stop-color="#AC7710"/>
<stop offset="0.81" stop-color="#AA7510"/>
<stop offset="0.94" stop-color="#9F6E13"/>
<stop offset="0.96" stop-color="#9E6D13"/>
</linearGradient>
<linearGradient id="paint30_linear_1814_6028" x1="161.33" y1="115.31" x2="100.093" y2="32.2624" gradientUnits="userSpaceOnUse">
<stop offset="0.38" stop-color="#FFFF23"/>
<stop offset="0.43" stop-color="#FFF421"/>
<stop offset="0.51" stop-color="#FFD71C"/>
<stop offset="0.56" stop-color="#FFBE18"/>
<stop offset="0.59" stop-color="#ECAE16"/>
<stop offset="0.63" stop-color="#DB9F14"/>
<stop offset="0.68" stop-color="#D09512"/>
<stop offset="0.75" stop-color="#C98F11"/>
<stop offset="0.94" stop-color="#C78D11"/>
</linearGradient>
<linearGradient id="paint31_linear_1814_6028" x1="71.1913" y1="28.48" x2="71.1913" y2="215.88" gradientUnits="userSpaceOnUse">
<stop stop-color="#FFBE18"/>
<stop offset="0.02" stop-color="#FFC619"/>
<stop offset="0.06" stop-color="#FFDE1D"/>
<stop offset="0.11" stop-color="#FFFF23"/>
<stop offset="0.23" stop-color="#FFE81F"/>
<stop offset="0.42" stop-color="#FFCA1A"/>
<stop offset="0.53" stop-color="#FFBE18"/>
<stop offset="0.64" stop-color="#FFC619"/>
<stop offset="0.81" stop-color="#FFDE1D"/>
<stop offset="1" stop-color="#FFFF23"/>
</linearGradient>
</defs>
</svg>
